#N canvas -8 -8 1920 997 12;
#X obj 42 39 netreceive 9001;
#X obj 277 325 tabwrite initialPositions;
#X obj 369 240 + 1;
#X msg 486 197 \; initialPositions const 0;
#X obj 277 167 t f b;
#X floatatom 162 40 5 0 0 0 - - -;
#N canvas 0 50 450 250 (subpatch) 0;
#X array initialPositions 64 float 2;
#X coords 0 1 64 -1 200 140 1;
#X restore 486 45 graph;
#X floatatom 332 271 5 0 0 0 - - -;
#X obj 332 240 f;
#X msg 350 210 0;
#X obj 486 289 expr if($f1 == 63 \, 1 \, 0);
#X obj 486 327 select 1;
#X obj 276 89 select 10;
#X obj 350 179 t b;
#N canvas 0 50 274 268 alternate 0;
#X obj 39 28 inlet;
#X obj 85 212 outlet;
#X obj 39 57 route reset;
#X obj 39 76 b;
#X obj 111 108 t a b;
#X obj 171 127 == 0;
#X obj 85 187 spigot;
#X obj 141 127 i 1;
#X obj 134 212 outlet;
#X obj 134 187 spigot;
#X msg 39 95 1;
#X connect 0 0 2 0;
#X connect 2 0 3 0;
#X connect 2 1 4 0;
#X connect 3 0 10 0;
#X connect 4 0 9 0;
#X connect 4 0 6 0;
#X connect 4 1 7 0;
#X connect 5 0 7 1;
#X connect 5 0 9 1;
#X connect 6 0 1 0;
#X connect 7 0 5 0;
#X connect 7 0 6 1;
#X connect 9 0 8 0;
#X connect 10 0 7 1;
#X restore 42 183 pd alternate;
#X obj 42 214 send sP;
#X obj 123 213 send tP;
#X obj 276 58 expr if($f1 < 2 \, $f1 \, 10);
#X obj 486 363 send initialize;
#X obj 770 169 receive pieceCaptured;
#N canvas 750 461 588 557 square1 0;
#X obj 221 271 readsf~;
#X obj 322 59 receive tP;
#X obj 322 119 select 1;
#X obj 115 121 select 1;
#X obj 115 63 receive sP;
#X msg 221 168 0;
#X obj 58 411 select 1;
#X obj 322 89 == 2;
#X obj 115 92 == 2;
#X obj 58 380 == 1;
#X obj 58 261 receive initialize;
#X obj 58 292 nbx 5 14 -1e+037 1e+037 0 1 empty empty empty 0 -8 0
10 -262144 -1 -1 0 256;
#X obj 58 349 tabread initialPositions;
#X obj 58 318 t f b;
#X floatatom 354 322 5 0 0 0 - - -;
#X obj 354 366 spigot;
#X obj 354 411 send pieceCaptured;
#X obj 221 318 throw~ master;
#X obj 354 277 env~ 10000;
#X obj 221 122 loadbang;
#X msg 322 200 0 \, open 1.wav \, 1;
#X connect 0 0 17 0;
#X connect 0 0 18 0;
#X connect 0 1 20 0;
#X connect 1 0 7 0;
#X connect 2 0 20 0;
#X connect 2 0 15 0;
#X connect 3 0 5 0;
#X connect 4 0 8 0;
#X connect 5 0 0 0;
#X connect 6 0 20 0;
#X connect 7 0 2 0;
#X connect 8 0 3 0;
#X connect 9 0 6 0;
#X connect 10 0 11 0;
#X connect 11 0 13 0;
#X connect 12 0 9 0;
#X connect 13 0 12 0;
#X connect 13 1 5 0;
#X connect 14 0 15 1;
#X connect 15 0 16 0;
#X connect 18 0 14 0;
#X connect 19 0 5 0;
#X connect 20 0 0 0;
#X restore 27 525 pd square1;
#X obj 812 707 *~;
#X obj 815 560 hsl 200 30 0 1 0 0 empty empty Master_Volume -2 -8 0
10 -262144 -1 -1 8200 1;
#X obj 811 672 catch~ master;
#N canvas 962 371 588 557 square2 0;
#X obj 221 271 readsf~;
#X obj 322 59 receive tP;
#X obj 322 119 select 1;
#X obj 115 121 select 1;
#X obj 115 63 receive sP;
#X msg 221 168 0;
#X obj 58 411 select 1;
#X obj 58 380 == 1;
#X obj 58 261 receive initialize;
#X obj 58 292 nbx 5 14 -1e+037 1e+037 0 1 empty empty empty 0 -8 0
10 -262144 -1 -1 1 256;
#X obj 58 349 tabread initialPositions;
#X obj 58 318 t f b;
#X floatatom 354 322 5 0 0 0 - - -;
#X obj 354 366 spigot;
#X obj 354 411 send pieceCaptured;
#X obj 221 318 throw~ master;
#X obj 354 277 env~ 10000;
#X obj 221 121 loadbang;
#X obj 115 92 == 3;
#X obj 322 89 == 3;
#X msg 322 200 0 \, open 2.wav \, 1;
#X connect 0 0 15 0;
#X connect 0 0 16 0;
#X connect 0 1 20 0;
#X connect 1 0 19 0;
#X connect 2 0 20 0;
#X connect 2 0 13 0;
#X connect 3 0 5 0;
#X connect 4 0 18 0;
#X connect 5 0 0 0;
#X connect 6 0 20 0;
#X connect 7 0 6 0;
#X connect 8 0 9 0;
#X connect 9 0 11 0;
#X connect 10 0 7 0;
#X connect 11 0 10 0;
#X connect 11 1 5 0;
#X connect 12 0 13 1;
#X connect 13 0 14 0;
#X connect 16 0 12 0;
#X connect 17 0 5 0;
#X connect 18 0 3 0;
#X connect 19 0 2 0;
#X connect 20 0 0 0;
#X restore 121 525 pd square2;
#N canvas 151 265 588 557 square3 0;
#X obj 221 271 readsf~;
#X obj 322 59 receive tP;
#X obj 322 119 select 1;
#X obj 115 121 select 1;
#X obj 115 63 receive sP;
#X msg 221 168 0;
#X obj 58 411 select 1;
#X obj 58 380 == 1;
#X obj 58 261 receive initialize;
#X obj 58 292 nbx 5 14 -1e+037 1e+037 0 1 empty empty empty 0 -8 0
10 -262144 -1 -1 2 256;
#X obj 58 349 tabread initialPositions;
#X obj 58 318 t f b;
#X floatatom 354 322 5 0 0 0 - - -;
#X obj 354 366 spigot;
#X obj 354 411 send pieceCaptured;
#X obj 221 318 throw~ master;
#X obj 354 277 env~ 10000;
#X obj 221 121 loadbang;
#X obj 115 92 == 4;
#X obj 322 89 == 4;
#X msg 322 200 0 \, open 3.wav \, 1;
#X connect 0 0 15 0;
#X connect 0 0 16 0;
#X connect 0 1 20 0;
#X connect 1 0 19 0;
#X connect 2 0 20 0;
#X connect 2 0 13 0;
#X connect 3 0 5 0;
#X connect 4 0 18 0;
#X connect 5 0 0 0;
#X connect 6 0 20 0;
#X connect 7 0 6 0;
#X connect 8 0 9 0;
#X connect 9 0 11 0;
#X connect 10 0 7 0;
#X connect 11 0 10 0;
#X connect 11 1 5 0;
#X connect 12 0 13 1;
#X connect 13 0 14 0;
#X connect 16 0 12 0;
#X connect 17 0 5 0;
#X connect 18 0 3 0;
#X connect 19 0 2 0;
#X connect 20 0 0 0;
#X restore 212 525 pd square3;
#N canvas 962 371 588 557 square4 0;
#X obj 221 271 readsf~;
#X obj 322 59 receive tP;
#X obj 322 119 select 1;
#X obj 115 121 select 1;
#X obj 115 63 receive sP;
#X msg 221 168 0;
#X obj 58 411 select 1;
#X obj 58 380 == 1;
#X obj 58 261 receive initialize;
#X obj 58 292 nbx 5 14 -1e+037 1e+037 0 1 empty empty empty 0 -8 0
10 -262144 -1 -1 3 256;
#X obj 58 349 tabread initialPositions;
#X obj 58 318 t f b;
#X floatatom 354 322 5 0 0 0 - - -;
#X obj 354 366 spigot;
#X obj 354 411 send pieceCaptured;
#X obj 221 318 throw~ master;
#X obj 354 277 env~ 10000;
#X obj 221 121 loadbang;
#X obj 115 92 == 5;
#X obj 322 89 == 5;
#X msg 322 200 0 \, open 4.wav \, 1;
#X connect 0 0 15 0;
#X connect 0 0 16 0;
#X connect 0 1 20 0;
#X connect 1 0 19 0;
#X connect 2 0 20 0;
#X connect 2 0 13 0;
#X connect 3 0 5 0;
#X connect 4 0 18 0;
#X connect 5 0 0 0;
#X connect 6 0 20 0;
#X connect 7 0 6 0;
#X connect 8 0 9 0;
#X connect 9 0 11 0;
#X connect 10 0 7 0;
#X connect 11 0 10 0;
#X connect 11 1 5 0;
#X connect 12 0 13 1;
#X connect 13 0 14 0;
#X connect 16 0 12 0;
#X connect 17 0 5 0;
#X connect 18 0 3 0;
#X connect 19 0 2 0;
#X connect 20 0 0 0;
#X restore 302 525 pd square4;
#N canvas 962 371 588 557 square5 0;
#X obj 221 271 readsf~;
#X obj 322 59 receive tP;
#X obj 322 119 select 1;
#X obj 115 121 select 1;
#X obj 115 63 receive sP;
#X msg 221 168 0;
#X obj 58 411 select 1;
#X obj 58 380 == 1;
#X obj 58 261 receive initialize;
#X obj 58 292 nbx 5 14 -1e+037 1e+037 0 1 empty empty empty 0 -8 0
10 -262144 -1 -1 4 256;
#X obj 58 349 tabread initialPositions;
#X obj 58 318 t f b;
#X floatatom 354 322 5 0 0 0 - - -;
#X obj 354 366 spigot;
#X obj 354 411 send pieceCaptured;
#X obj 221 318 throw~ master;
#X obj 354 277 env~ 10000;
#X obj 221 121 loadbang;
#X obj 115 92 == 6;
#X obj 322 89 == 6;
#X msg 322 200 0 \, open 5.wav \, 1;
#X connect 0 0 15 0;
#X connect 0 0 16 0;
#X connect 0 1 20 0;
#X connect 1 0 19 0;
#X connect 2 0 20 0;
#X connect 2 0 13 0;
#X connect 3 0 5 0;
#X connect 4 0 18 0;
#X connect 5 0 0 0;
#X connect 6 0 20 0;
#X connect 7 0 6 0;
#X connect 8 0 9 0;
#X connect 9 0 11 0;
#X connect 10 0 7 0;
#X connect 11 0 10 0;
#X connect 11 1 5 0;
#X connect 12 0 13 1;
#X connect 13 0 14 0;
#X connect 16 0 12 0;
#X connect 17 0 5 0;
#X connect 18 0 3 0;
#X connect 19 0 2 0;
#X connect 20 0 0 0;
#X restore 393 525 pd square5;
#N canvas 928 335 588 557 square6 0;
#X obj 221 271 readsf~;
#X obj 322 59 receive tP;
#X obj 322 119 select 1;
#X obj 115 121 select 1;
#X obj 115 63 receive sP;
#X msg 221 168 0;
#X obj 58 411 select 1;
#X obj 58 380 == 1;
#X obj 58 261 receive initialize;
#X obj 58 292 nbx 5 14 -1e+037 1e+037 0 1 empty empty empty 0 -8 0
10 -262144 -1 -1 5 256;
#X obj 58 349 tabread initialPositions;
#X obj 58 318 t f b;
#X floatatom 354 322 5 0 0 0 - - -;
#X obj 354 366 spigot;
#X obj 354 411 send pieceCaptured;
#X obj 221 318 throw~ master;
#X obj 354 277 env~ 10000;
#X obj 221 121 loadbang;
#X obj 115 92 == 7;
#X obj 322 89 == 7;
#X msg 322 200 0 \, open 6.wav \, 1;
#X connect 0 0 15 0;
#X connect 0 0 16 0;
#X connect 0 1 20 0;
#X connect 1 0 19 0;
#X connect 2 0 20 0;
#X connect 2 0 13 0;
#X connect 3 0 5 0;
#X connect 4 0 18 0;
#X connect 5 0 0 0;
#X connect 6 0 20 0;
#X connect 7 0 6 0;
#X connect 8 0 9 0;
#X connect 9 0 11 0;
#X connect 10 0 7 0;
#X connect 11 0 10 0;
#X connect 11 1 5 0;
#X connect 12 0 13 1;
#X connect 13 0 14 0;
#X connect 16 0 12 0;
#X connect 17 0 5 0;
#X connect 18 0 3 0;
#X connect 19 0 2 0;
#X connect 20 0 0 0;
#X restore 485 525 pd square6;
#N canvas 993 347 588 557 square7 0;
#X obj 221 271 readsf~;
#X obj 322 59 receive tP;
#X obj 322 119 select 1;
#X obj 115 121 select 1;
#X obj 115 63 receive sP;
#X msg 221 168 0;
#X obj 58 411 select 1;
#X obj 58 380 == 1;
#X obj 58 261 receive initialize;
#X obj 58 292 nbx 5 14 -1e+037 1e+037 0 1 empty empty empty 0 -8 0
10 -262144 -1 -1 6 256;
#X obj 58 349 tabread initialPositions;
#X obj 58 318 t f b;
#X floatatom 354 322 5 0 0 0 - - -;
#X obj 354 366 spigot;
#X obj 354 411 send pieceCaptured;
#X obj 221 318 throw~ master;
#X obj 354 277 env~ 10000;
#X obj 221 121 loadbang;
#X obj 115 92 == 8;
#X obj 322 89 == 8;
#X msg 322 200 0 \, open 7.wav \, 1;
#X connect 0 0 15 0;
#X connect 0 0 16 0;
#X connect 0 1 20 0;
#X connect 1 0 19 0;
#X connect 2 0 20 0;
#X connect 2 0 13 0;
#X connect 3 0 5 0;
#X connect 4 0 18 0;
#X connect 5 0 0 0;
#X connect 6 0 20 0;
#X connect 7 0 6 0;
#X connect 8 0 9 0;
#X connect 9 0 11 0;
#X connect 10 0 7 0;
#X connect 11 0 10 0;
#X connect 11 1 5 0;
#X connect 12 0 13 1;
#X connect 13 0 14 0;
#X connect 16 0 12 0;
#X connect 17 0 5 0;
#X connect 18 0 3 0;
#X connect 19 0 2 0;
#X connect 20 0 0 0;
#X restore 575 525 pd square7;
#N canvas 962 371 588 557 square8 0;
#X obj 221 271 readsf~;
#X obj 322 59 receive tP;
#X obj 322 119 select 1;
#X obj 115 121 select 1;
#X obj 115 63 receive sP;
#X msg 221 168 0;
#X obj 58 411 select 1;
#X obj 58 380 == 1;
#X obj 58 261 receive initialize;
#X obj 58 292 nbx 5 14 -1e+037 1e+037 0 1 empty empty empty 0 -8 0
10 -262144 -1 -1 7 256;
#X obj 58 349 tabread initialPositions;
#X obj 58 318 t f b;
#X floatatom 354 322 5 0 0 0 - - -;
#X obj 354 366 spigot;
#X obj 354 411 send pieceCaptured;
#X obj 221 318 throw~ master;
#X obj 354 277 env~ 10000;
#X obj 221 121 loadbang;
#X obj 115 92 == 9;
#X obj 322 89 == 9;
#X msg 322 200 0 \, open 8.wav \, 1;
#X connect 0 0 15 0;
#X connect 0 0 16 0;
#X connect 0 1 20 0;
#X connect 1 0 19 0;
#X connect 2 0 20 0;
#X connect 2 0 13 0;
#X connect 3 0 5 0;
#X connect 4 0 18 0;
#X connect 5 0 0 0;
#X connect 6 0 20 0;
#X connect 7 0 6 0;
#X connect 8 0 9 0;
#X connect 9 0 11 0;
#X connect 10 0 7 0;
#X connect 11 0 10 0;
#X connect 11 1 5 0;
#X connect 12 0 13 1;
#X connect 13 0 14 0;
#X connect 16 0 12 0;
#X connect 17 0 5 0;
#X connect 18 0 3 0;
#X connect 19 0 2 0;
#X connect 20 0 0 0;
#X restore 666 525 pd square8;
#N canvas 962 371 588 557 square9 0;
#X obj 221 271 readsf~;
#X obj 322 59 receive tP;
#X obj 322 119 select 1;
#X obj 115 121 select 1;
#X obj 115 63 receive sP;
#X msg 221 168 0;
#X obj 58 411 select 1;
#X obj 58 380 == 1;
#X obj 58 261 receive initialize;
#X obj 58 292 nbx 5 14 -1e+037 1e+037 0 1 empty empty empty 0 -8 0
10 -262144 -1 -1 8 256;
#X obj 58 349 tabread initialPositions;
#X obj 58 318 t f b;
#X floatatom 354 322 5 0 0 0 - - -;
#X obj 354 366 spigot;
#X obj 354 411 send pieceCaptured;
#X obj 221 318 throw~ master;
#X obj 354 277 env~ 10000;
#X obj 221 122 loadbang;
#X obj 115 92 == 10;
#X obj 322 89 == 10;
#X msg 322 200 0 \, open 9.wav \, 1;
#X connect 0 0 15 0;
#X connect 0 0 16 0;
#X connect 0 1 20 0;
#X connect 1 0 19 0;
#X connect 2 0 20 0;
#X connect 2 0 13 0;
#X connect 3 0 5 0;
#X connect 4 0 18 0;
#X connect 5 0 0 0;
#X connect 6 0 20 0;
#X connect 7 0 6 0;
#X connect 8 0 9 0;
#X connect 9 0 11 0;
#X connect 10 0 7 0;
#X connect 11 0 10 0;
#X connect 11 1 5 0;
#X connect 12 0 13 1;
#X connect 13 0 14 0;
#X connect 16 0 12 0;
#X connect 17 0 5 0;
#X connect 18 0 3 0;
#X connect 19 0 2 0;
#X connect 20 0 0 0;
#X restore 27 561 pd square9;
#N canvas 962 371 588 557 square10 0;
#X obj 221 271 readsf~;
#X obj 322 59 receive tP;
#X obj 322 119 select 1;
#X obj 115 121 select 1;
#X obj 115 63 receive sP;
#X msg 221 168 0;
#X obj 58 411 select 1;
#X obj 58 380 == 1;
#X obj 58 261 receive initialize;
#X obj 58 292 nbx 5 14 -1e+037 1e+037 0 1 empty empty empty 0 -8 0
10 -262144 -1 -1 9 256;
#X obj 58 349 tabread initialPositions;
#X obj 58 318 t f b;
#X floatatom 354 322 5 0 0 0 - - -;
#X obj 354 366 spigot;
#X obj 354 411 send pieceCaptured;
#X obj 221 318 throw~ master;
#X obj 354 277 env~ 10000;
#X obj 221 121 loadbang;
#X obj 115 92 == 11;
#X obj 322 89 == 11;
#X msg 322 200 0 \, open 10.wav \, 1;
#X connect 0 0 15 0;
#X connect 0 0 16 0;
#X connect 0 1 20 0;
#X connect 1 0 19 0;
#X connect 2 0 20 0;
#X connect 2 0 13 0;
#X connect 3 0 5 0;
#X connect 4 0 18 0;
#X connect 5 0 0 0;
#X connect 6 0 20 0;
#X connect 7 0 6 0;
#X connect 8 0 9 0;
#X connect 9 0 11 0;
#X connect 10 0 7 0;
#X connect 11 0 10 0;
#X connect 11 1 5 0;
#X connect 12 0 13 1;
#X connect 13 0 14 0;
#X connect 16 0 12 0;
#X connect 17 0 5 0;
#X connect 18 0 3 0;
#X connect 19 0 2 0;
#X connect 20 0 0 0;
#X restore 121 561 pd square10;
#N canvas 1027 281 588 557 square11 0;
#X obj 221 271 readsf~;
#X obj 322 59 receive tP;
#X obj 322 119 select 1;
#X obj 115 121 select 1;
#X obj 115 63 receive sP;
#X msg 221 168 0;
#X obj 58 411 select 1;
#X obj 58 380 == 1;
#X obj 58 261 receive initialize;
#X obj 58 292 nbx 5 14 -1e+037 1e+037 0 1 empty empty empty 0 -8 0
10 -262144 -1 -1 10 256;
#X obj 58 349 tabread initialPositions;
#X obj 58 318 t f b;
#X floatatom 354 322 5 0 0 0 - - -;
#X obj 354 366 spigot;
#X obj 354 411 send pieceCaptured;
#X obj 221 318 throw~ master;
#X obj 354 277 env~ 10000;
#X obj 221 121 loadbang;
#X obj 115 92 == 12;
#X obj 322 89 == 12;
#X msg 322 200 0 \, open 11.wav \, 1;
#X connect 0 0 15 0;
#X connect 0 0 16 0;
#X connect 0 1 20 0;
#X connect 1 0 19 0;
#X connect 2 0 20 0;
#X connect 2 0 13 0;
#X connect 3 0 5 0;
#X connect 4 0 18 0;
#X connect 5 0 0 0;
#X connect 6 0 20 0;
#X connect 7 0 6 0;
#X connect 8 0 9 0;
#X connect 9 0 11 0;
#X connect 10 0 7 0;
#X connect 11 0 10 0;
#X connect 11 1 5 0;
#X connect 12 0 13 1;
#X connect 13 0 14 0;
#X connect 16 0 12 0;
#X connect 17 0 5 0;
#X connect 18 0 3 0;
#X connect 19 0 2 0;
#X connect 20 0 0 0;
#X restore 212 561 pd square11;
#N canvas 962 371 588 557 square12 0;
#X obj 221 271 readsf~;
#X obj 322 59 receive tP;
#X obj 322 119 select 1;
#X obj 115 121 select 1;
#X obj 115 63 receive sP;
#X msg 221 168 0;
#X obj 58 411 select 1;
#X obj 58 380 == 1;
#X obj 58 261 receive initialize;
#X obj 58 292 nbx 5 14 -1e+037 1e+037 0 1 empty empty empty 0 -8 0
10 -262144 -1 -1 11 256;
#X obj 58 349 tabread initialPositions;
#X obj 58 318 t f b;
#X floatatom 354 322 5 0 0 0 - - -;
#X obj 354 366 spigot;
#X obj 354 411 send pieceCaptured;
#X obj 221 318 throw~ master;
#X obj 354 277 env~ 10000;
#X obj 221 121 loadbang;
#X obj 115 92 == 13;
#X obj 322 89 == 13;
#X msg 322 200 0 \, open 12.wav \, 1;
#X connect 0 0 15 0;
#X connect 0 0 16 0;
#X connect 0 1 20 0;
#X connect 1 0 19 0;
#X connect 2 0 20 0;
#X connect 2 0 13 0;
#X connect 3 0 5 0;
#X connect 4 0 18 0;
#X connect 5 0 0 0;
#X connect 6 0 20 0;
#X connect 7 0 6 0;
#X connect 8 0 9 0;
#X connect 9 0 11 0;
#X connect 10 0 7 0;
#X connect 11 0 10 0;
#X connect 11 1 5 0;
#X connect 12 0 13 1;
#X connect 13 0 14 0;
#X connect 16 0 12 0;
#X connect 17 0 5 0;
#X connect 18 0 3 0;
#X connect 19 0 2 0;
#X connect 20 0 0 0;
#X restore 302 561 pd square12;
#N canvas 962 371 588 557 square13 0;
#X obj 221 271 readsf~;
#X obj 322 59 receive tP;
#X obj 322 119 select 1;
#X obj 115 121 select 1;
#X obj 115 63 receive sP;
#X msg 221 168 0;
#X obj 58 411 select 1;
#X obj 58 380 == 1;
#X obj 58 261 receive initialize;
#X obj 58 292 nbx 5 14 -1e+037 1e+037 0 1 empty empty empty 0 -8 0
10 -262144 -1 -1 12 256;
#X obj 58 349 tabread initialPositions;
#X obj 58 318 t f b;
#X floatatom 354 322 5 0 0 0 - - -;
#X obj 354 366 spigot;
#X obj 354 411 send pieceCaptured;
#X obj 221 318 throw~ master;
#X obj 354 277 env~ 10000;
#X obj 221 121 loadbang;
#X obj 115 92 == 14;
#X obj 322 89 == 14;
#X msg 322 200 0 \, open 13.wav \, 1;
#X connect 0 0 15 0;
#X connect 0 0 16 0;
#X connect 0 1 20 0;
#X connect 1 0 19 0;
#X connect 2 0 20 0;
#X connect 2 0 13 0;
#X connect 3 0 5 0;
#X connect 4 0 18 0;
#X connect 5 0 0 0;
#X connect 6 0 20 0;
#X connect 7 0 6 0;
#X connect 8 0 9 0;
#X connect 9 0 11 0;
#X connect 10 0 7 0;
#X connect 11 0 10 0;
#X connect 11 1 5 0;
#X connect 12 0 13 1;
#X connect 13 0 14 0;
#X connect 16 0 12 0;
#X connect 17 0 5 0;
#X connect 18 0 3 0;
#X connect 19 0 2 0;
#X connect 20 0 0 0;
#X restore 393 561 pd square13;
#N canvas 962 371 588 557 square14 0;
#X obj 221 271 readsf~;
#X obj 322 59 receive tP;
#X obj 322 119 select 1;
#X obj 115 121 select 1;
#X obj 115 63 receive sP;
#X msg 221 168 0;
#X obj 58 411 select 1;
#X obj 58 380 == 1;
#X obj 58 261 receive initialize;
#X obj 58 292 nbx 5 14 -1e+037 1e+037 0 1 empty empty empty 0 -8 0
10 -262144 -1 -1 13 256;
#X obj 58 349 tabread initialPositions;
#X obj 58 318 t f b;
#X floatatom 354 322 5 0 0 0 - - -;
#X obj 354 366 spigot;
#X obj 354 411 send pieceCaptured;
#X obj 221 318 throw~ master;
#X obj 354 277 env~ 10000;
#X obj 221 121 loadbang;
#X obj 115 92 == 15;
#X obj 322 89 == 15;
#X msg 322 200 0 \, open 15.wav \, 1;
#X connect 0 0 15 0;
#X connect 0 0 16 0;
#X connect 0 1 20 0;
#X connect 1 0 19 0;
#X connect 2 0 20 0;
#X connect 2 0 13 0;
#X connect 3 0 5 0;
#X connect 4 0 18 0;
#X connect 5 0 0 0;
#X connect 6 0 20 0;
#X connect 7 0 6 0;
#X connect 8 0 9 0;
#X connect 9 0 11 0;
#X connect 10 0 7 0;
#X connect 11 0 10 0;
#X connect 11 1 5 0;
#X connect 12 0 13 1;
#X connect 13 0 14 0;
#X connect 16 0 12 0;
#X connect 17 0 5 0;
#X connect 18 0 3 0;
#X connect 19 0 2 0;
#X connect 20 0 0 0;
#X restore 485 561 pd square14;
#N canvas 962 371 588 557 square15 0;
#X obj 221 271 readsf~;
#X obj 322 59 receive tP;
#X obj 322 119 select 1;
#X obj 115 121 select 1;
#X obj 115 63 receive sP;
#X msg 221 168 0;
#X obj 58 411 select 1;
#X obj 58 380 == 1;
#X obj 58 261 receive initialize;
#X obj 58 292 nbx 5 14 -1e+037 1e+037 0 1 empty empty empty 0 -8 0
10 -262144 -1 -1 14 256;
#X obj 58 349 tabread initialPositions;
#X obj 58 318 t f b;
#X floatatom 354 322 5 0 0 0 - - -;
#X obj 354 366 spigot;
#X obj 354 411 send pieceCaptured;
#X obj 221 318 throw~ master;
#X obj 354 277 env~ 10000;
#X obj 221 121 loadbang;
#X obj 115 92 == 16;
#X obj 322 89 == 16;
#X msg 322 200 0 \, open 15.wav \, 1;
#X connect 0 0 15 0;
#X connect 0 0 16 0;
#X connect 0 1 20 0;
#X connect 1 0 19 0;
#X connect 2 0 20 0;
#X connect 2 0 13 0;
#X connect 3 0 5 0;
#X connect 4 0 18 0;
#X connect 5 0 0 0;
#X connect 6 0 20 0;
#X connect 7 0 6 0;
#X connect 8 0 9 0;
#X connect 9 0 11 0;
#X connect 10 0 7 0;
#X connect 11 0 10 0;
#X connect 11 1 5 0;
#X connect 12 0 13 1;
#X connect 13 0 14 0;
#X connect 16 0 12 0;
#X connect 17 0 5 0;
#X connect 18 0 3 0;
#X connect 19 0 2 0;
#X connect 20 0 0 0;
#X restore 575 561 pd square15;
#N canvas 962 371 588 557 square16 0;
#X obj 221 271 readsf~;
#X obj 322 59 receive tP;
#X obj 322 119 select 1;
#X obj 115 121 select 1;
#X obj 115 63 receive sP;
#X msg 221 168 0;
#X obj 58 411 select 1;
#X obj 58 380 == 1;
#X obj 58 261 receive initialize;
#X obj 58 292 nbx 5 14 -1e+037 1e+037 0 1 empty empty empty 0 -8 0
10 -262144 -1 -1 15 256;
#X obj 58 349 tabread initialPositions;
#X obj 58 318 t f b;
#X floatatom 354 322 5 0 0 0 - - -;
#X obj 354 366 spigot;
#X obj 354 411 send pieceCaptured;
#X obj 221 318 throw~ master;
#X obj 354 277 env~ 10000;
#X obj 221 121 loadbang;
#X obj 115 92 == 17;
#X obj 322 89 == 17;
#X msg 322 200 0 \, open 16.wav \, 1;
#X connect 0 0 15 0;
#X connect 0 0 16 0;
#X connect 0 1 20 0;
#X connect 1 0 19 0;
#X connect 2 0 20 0;
#X connect 2 0 13 0;
#X connect 3 0 5 0;
#X connect 4 0 18 0;
#X connect 5 0 0 0;
#X connect 6 0 20 0;
#X connect 7 0 6 0;
#X connect 8 0 9 0;
#X connect 9 0 11 0;
#X connect 10 0 7 0;
#X connect 11 0 10 0;
#X connect 11 1 5 0;
#X connect 12 0 13 1;
#X connect 13 0 14 0;
#X connect 16 0 12 0;
#X connect 17 0 5 0;
#X connect 18 0 3 0;
#X connect 19 0 2 0;
#X connect 20 0 0 0;
#X restore 666 561 pd square16;
#N canvas 962 371 588 557 square17 0;
#X obj 221 271 readsf~;
#X obj 322 59 receive tP;
#X obj 322 119 select 1;
#X obj 115 121 select 1;
#X obj 115 63 receive sP;
#X msg 221 168 0;
#X obj 58 411 select 1;
#X obj 58 380 == 1;
#X obj 58 261 receive initialize;
#X obj 58 292 nbx 5 14 -1e+037 1e+037 0 1 empty empty empty 0 -8 0
10 -262144 -1 -1 16 256;
#X obj 58 349 tabread initialPositions;
#X obj 58 318 t f b;
#X floatatom 354 322 5 0 0 0 - - -;
#X obj 354 366 spigot;
#X obj 354 411 send pieceCaptured;
#X obj 221 318 throw~ master;
#X obj 354 277 env~ 10000;
#X obj 221 122 loadbang;
#X obj 115 92 == 18;
#X obj 322 89 == 18;
#X msg 322 200 0 \, open 17.wav \, 1;
#X connect 0 0 15 0;
#X connect 0 0 16 0;
#X connect 0 1 20 0;
#X connect 1 0 19 0;
#X connect 2 0 20 0;
#X connect 2 0 13 0;
#X connect 3 0 5 0;
#X connect 4 0 18 0;
#X connect 5 0 0 0;
#X connect 6 0 20 0;
#X connect 7 0 6 0;
#X connect 8 0 9 0;
#X connect 9 0 11 0;
#X connect 10 0 7 0;
#X connect 11 0 10 0;
#X connect 11 1 5 0;
#X connect 12 0 13 1;
#X connect 13 0 14 0;
#X connect 16 0 12 0;
#X connect 17 0 5 0;
#X connect 18 0 3 0;
#X connect 19 0 2 0;
#X connect 20 0 0 0;
#X restore 27 597 pd square17;
#N canvas 1036 360 588 557 square18 0;
#X obj 221 271 readsf~;
#X obj 322 59 receive tP;
#X obj 322 119 select 1;
#X obj 115 121 select 1;
#X obj 115 63 receive sP;
#X msg 221 168 0;
#X obj 58 411 select 1;
#X obj 58 380 == 1;
#X obj 58 261 receive initialize;
#X obj 58 292 nbx 5 14 -1e+037 1e+037 0 1 empty empty empty 0 -8 0
10 -262144 -1 -1 17 256;
#X obj 58 349 tabread initialPositions;
#X obj 58 318 t f b;
#X floatatom 354 322 5 0 0 0 - - -;
#X obj 354 366 spigot;
#X obj 354 411 send pieceCaptured;
#X obj 221 318 throw~ master;
#X obj 354 277 env~ 10000;
#X obj 221 121 loadbang;
#X obj 115 92 == 19;
#X obj 322 89 == 19;
#X msg 322 200 0 \, open 18.wav \, 1;
#X connect 0 0 15 0;
#X connect 0 0 16 0;
#X connect 0 1 20 0;
#X connect 1 0 19 0;
#X connect 2 0 20 0;
#X connect 2 0 13 0;
#X connect 3 0 5 0;
#X connect 4 0 18 0;
#X connect 5 0 0 0;
#X connect 6 0 20 0;
#X connect 7 0 6 0;
#X connect 8 0 9 0;
#X connect 9 0 11 0;
#X connect 10 0 7 0;
#X connect 11 0 10 0;
#X connect 11 1 5 0;
#X connect 12 0 13 1;
#X connect 13 0 14 0;
#X connect 16 0 12 0;
#X connect 17 0 5 0;
#X connect 18 0 3 0;
#X connect 19 0 2 0;
#X connect 20 0 0 0;
#X restore 121 597 pd square18;
#N canvas 1152 242 588 557 square19 0;
#X obj 221 271 readsf~;
#X obj 322 59 receive tP;
#X obj 322 119 select 1;
#X obj 115 121 select 1;
#X obj 115 63 receive sP;
#X msg 221 168 0;
#X obj 58 411 select 1;
#X obj 58 380 == 1;
#X obj 58 261 receive initialize;
#X obj 58 292 nbx 5 14 -1e+037 1e+037 0 1 empty empty empty 0 -8 0
10 -262144 -1 -1 18 256;
#X obj 58 349 tabread initialPositions;
#X obj 58 318 t f b;
#X floatatom 354 322 5 0 0 0 - - -;
#X obj 354 366 spigot;
#X obj 354 411 send pieceCaptured;
#X obj 221 318 throw~ master;
#X obj 354 277 env~ 10000;
#X obj 221 121 loadbang;
#X obj 115 92 == 20;
#X obj 322 89 == 20;
#X msg 322 200 0 \, open 19.wav \, 1;
#X connect 0 0 15 0;
#X connect 0 0 16 0;
#X connect 0 1 20 0;
#X connect 1 0 19 0;
#X connect 2 0 20 0;
#X connect 2 0 13 0;
#X connect 3 0 5 0;
#X connect 4 0 18 0;
#X connect 5 0 0 0;
#X connect 6 0 20 0;
#X connect 7 0 6 0;
#X connect 8 0 9 0;
#X connect 9 0 11 0;
#X connect 10 0 7 0;
#X connect 11 0 10 0;
#X connect 11 1 5 0;
#X connect 12 0 13 1;
#X connect 13 0 14 0;
#X connect 16 0 12 0;
#X connect 17 0 5 0;
#X connect 18 0 3 0;
#X connect 19 0 2 0;
#X connect 20 0 0 0;
#X restore 212 597 pd square19;
#N canvas 962 371 588 557 square20 0;
#X obj 221 271 readsf~;
#X obj 322 59 receive tP;
#X obj 322 119 select 1;
#X obj 115 121 select 1;
#X obj 115 63 receive sP;
#X msg 221 168 0;
#X obj 58 411 select 1;
#X obj 58 380 == 1;
#X obj 58 261 receive initialize;
#X obj 58 292 nbx 5 14 -1e+037 1e+037 0 1 empty empty empty 0 -8 0
10 -262144 -1 -1 19 256;
#X obj 58 349 tabread initialPositions;
#X obj 58 318 t f b;
#X floatatom 354 322 5 0 0 0 - - -;
#X obj 354 366 spigot;
#X obj 354 411 send pieceCaptured;
#X obj 221 318 throw~ master;
#X obj 354 277 env~ 10000;
#X obj 221 121 loadbang;
#X obj 115 92 == 21;
#X obj 322 89 == 21;
#X msg 322 200 0 \, open 20.wav \, 1;
#X connect 0 0 15 0;
#X connect 0 0 16 0;
#X connect 0 1 20 0;
#X connect 1 0 19 0;
#X connect 2 0 20 0;
#X connect 2 0 13 0;
#X connect 3 0 5 0;
#X connect 4 0 18 0;
#X connect 5 0 0 0;
#X connect 6 0 20 0;
#X connect 7 0 6 0;
#X connect 8 0 9 0;
#X connect 9 0 11 0;
#X connect 10 0 7 0;
#X connect 11 0 10 0;
#X connect 11 1 5 0;
#X connect 12 0 13 1;
#X connect 13 0 14 0;
#X connect 16 0 12 0;
#X connect 17 0 5 0;
#X connect 18 0 3 0;
#X connect 19 0 2 0;
#X connect 20 0 0 0;
#X restore 302 597 pd square20;
#N canvas 962 371 588 557 square21 0;
#X obj 221 271 readsf~;
#X obj 322 59 receive tP;
#X obj 322 119 select 1;
#X obj 115 121 select 1;
#X obj 115 63 receive sP;
#X msg 221 168 0;
#X obj 58 411 select 1;
#X obj 58 380 == 1;
#X obj 58 261 receive initialize;
#X obj 58 292 nbx 5 14 -1e+037 1e+037 0 1 empty empty empty 0 -8 0
10 -262144 -1 -1 20 256;
#X obj 58 349 tabread initialPositions;
#X obj 58 318 t f b;
#X floatatom 354 322 5 0 0 0 - - -;
#X obj 354 366 spigot;
#X obj 354 411 send pieceCaptured;
#X obj 221 318 throw~ master;
#X obj 354 277 env~ 10000;
#X obj 221 121 loadbang;
#X obj 115 92 == 22;
#X obj 322 89 == 22;
#X msg 322 200 0 \, open 21.wav \, 1;
#X connect 0 0 15 0;
#X connect 0 0 16 0;
#X connect 0 1 20 0;
#X connect 1 0 19 0;
#X connect 2 0 20 0;
#X connect 2 0 13 0;
#X connect 3 0 5 0;
#X connect 4 0 18 0;
#X connect 5 0 0 0;
#X connect 6 0 20 0;
#X connect 7 0 6 0;
#X connect 8 0 9 0;
#X connect 9 0 11 0;
#X connect 10 0 7 0;
#X connect 11 0 10 0;
#X connect 11 1 5 0;
#X connect 12 0 13 1;
#X connect 13 0 14 0;
#X connect 16 0 12 0;
#X connect 17 0 5 0;
#X connect 18 0 3 0;
#X connect 19 0 2 0;
#X connect 20 0 0 0;
#X restore 393 597 pd square21;
#N canvas 962 371 588 557 square22 0;
#X obj 221 271 readsf~;
#X obj 322 59 receive tP;
#X obj 322 119 select 1;
#X obj 115 121 select 1;
#X obj 115 63 receive sP;
#X msg 221 168 0;
#X obj 58 411 select 1;
#X obj 58 380 == 1;
#X obj 58 261 receive initialize;
#X obj 58 292 nbx 5 14 -1e+037 1e+037 0 1 empty empty empty 0 -8 0
10 -262144 -1 -1 21 256;
#X obj 58 349 tabread initialPositions;
#X obj 58 318 t f b;
#X floatatom 354 322 5 0 0 0 - - -;
#X obj 354 366 spigot;
#X obj 354 411 send pieceCaptured;
#X obj 221 318 throw~ master;
#X obj 354 277 env~ 10000;
#X obj 221 121 loadbang;
#X obj 115 92 == 23;
#X obj 322 89 == 23;
#X msg 322 200 0 \, open 22.wav \, 1;
#X connect 0 0 15 0;
#X connect 0 0 16 0;
#X connect 0 1 20 0;
#X connect 1 0 19 0;
#X connect 2 0 20 0;
#X connect 2 0 13 0;
#X connect 3 0 5 0;
#X connect 4 0 18 0;
#X connect 5 0 0 0;
#X connect 6 0 20 0;
#X connect 7 0 6 0;
#X connect 8 0 9 0;
#X connect 9 0 11 0;
#X connect 10 0 7 0;
#X connect 11 0 10 0;
#X connect 11 1 5 0;
#X connect 12 0 13 1;
#X connect 13 0 14 0;
#X connect 16 0 12 0;
#X connect 17 0 5 0;
#X connect 18 0 3 0;
#X connect 19 0 2 0;
#X connect 20 0 0 0;
#X restore 485 597 pd square22;
#N canvas 962 371 588 557 square23 0;
#X obj 221 271 readsf~;
#X obj 322 59 receive tP;
#X obj 322 119 select 1;
#X obj 115 121 select 1;
#X obj 115 63 receive sP;
#X msg 221 168 0;
#X obj 58 411 select 1;
#X obj 58 380 == 1;
#X obj 58 261 receive initialize;
#X obj 58 292 nbx 5 14 -1e+037 1e+037 0 1 empty empty empty 0 -8 0
10 -262144 -1 -1 22 256;
#X obj 58 349 tabread initialPositions;
#X obj 58 318 t f b;
#X floatatom 354 322 5 0 0 0 - - -;
#X obj 354 366 spigot;
#X obj 354 411 send pieceCaptured;
#X obj 221 318 throw~ master;
#X obj 354 277 env~ 10000;
#X obj 221 121 loadbang;
#X obj 115 92 == 24;
#X obj 322 89 == 24;
#X msg 322 200 0 \, open 23.wav \, 1;
#X connect 0 0 15 0;
#X connect 0 0 16 0;
#X connect 0 1 20 0;
#X connect 1 0 19 0;
#X connect 2 0 20 0;
#X connect 2 0 13 0;
#X connect 3 0 5 0;
#X connect 4 0 18 0;
#X connect 5 0 0 0;
#X connect 6 0 20 0;
#X connect 7 0 6 0;
#X connect 8 0 9 0;
#X connect 9 0 11 0;
#X connect 10 0 7 0;
#X connect 11 0 10 0;
#X connect 11 1 5 0;
#X connect 12 0 13 1;
#X connect 13 0 14 0;
#X connect 16 0 12 0;
#X connect 17 0 5 0;
#X connect 18 0 3 0;
#X connect 19 0 2 0;
#X connect 20 0 0 0;
#X restore 575 597 pd square23;
#N canvas 962 371 588 557 square24 0;
#X obj 221 271 readsf~;
#X obj 322 59 receive tP;
#X obj 322 119 select 1;
#X obj 115 121 select 1;
#X obj 115 63 receive sP;
#X msg 221 168 0;
#X obj 58 411 select 1;
#X obj 58 380 == 1;
#X obj 58 261 receive initialize;
#X obj 58 292 nbx 5 14 -1e+037 1e+037 0 1 empty empty empty 0 -8 0
10 -262144 -1 -1 23 256;
#X obj 58 349 tabread initialPositions;
#X obj 58 318 t f b;
#X floatatom 354 322 5 0 0 0 - - -;
#X obj 354 366 spigot;
#X obj 354 411 send pieceCaptured;
#X obj 221 318 throw~ master;
#X obj 354 277 env~ 10000;
#X obj 221 121 loadbang;
#X obj 115 92 == 25;
#X obj 322 89 == 25;
#X msg 322 200 0 \, open 24.wav \, 1;
#X connect 0 0 15 0;
#X connect 0 0 16 0;
#X connect 0 1 20 0;
#X connect 1 0 19 0;
#X connect 2 0 20 0;
#X connect 2 0 13 0;
#X connect 3 0 5 0;
#X connect 4 0 18 0;
#X connect 5 0 0 0;
#X connect 6 0 20 0;
#X connect 7 0 6 0;
#X connect 8 0 9 0;
#X connect 9 0 11 0;
#X connect 10 0 7 0;
#X connect 11 0 10 0;
#X connect 11 1 5 0;
#X connect 12 0 13 1;
#X connect 13 0 14 0;
#X connect 16 0 12 0;
#X connect 17 0 5 0;
#X connect 18 0 3 0;
#X connect 19 0 2 0;
#X connect 20 0 0 0;
#X restore 666 597 pd square24;
#N canvas 1113 350 588 557 square25 0;
#X obj 221 271 readsf~;
#X obj 322 59 receive tP;
#X obj 322 119 select 1;
#X obj 115 121 select 1;
#X obj 115 63 receive sP;
#X msg 221 168 0;
#X obj 58 411 select 1;
#X obj 58 380 == 1;
#X obj 58 261 receive initialize;
#X obj 58 292 nbx 5 14 -1e+037 1e+037 0 1 empty empty empty 0 -8 0
10 -262144 -1 -1 24 256;
#X obj 58 349 tabread initialPositions;
#X obj 58 318 t f b;
#X floatatom 354 322 5 0 0 0 - - -;
#X obj 354 366 spigot;
#X obj 354 411 send pieceCaptured;
#X obj 221 318 throw~ master;
#X obj 354 277 env~ 10000;
#X obj 221 122 loadbang;
#X obj 115 92 == 26;
#X obj 322 89 == 26;
#X msg 322 200 0 \, open 25.wav \, 1;
#X connect 0 0 15 0;
#X connect 0 0 16 0;
#X connect 0 1 20 0;
#X connect 1 0 19 0;
#X connect 2 0 20 0;
#X connect 2 0 13 0;
#X connect 3 0 5 0;
#X connect 4 0 18 0;
#X connect 5 0 0 0;
#X connect 6 0 20 0;
#X connect 7 0 6 0;
#X connect 8 0 9 0;
#X connect 9 0 11 0;
#X connect 10 0 7 0;
#X connect 11 0 10 0;
#X connect 11 1 5 0;
#X connect 12 0 13 1;
#X connect 13 0 14 0;
#X connect 16 0 12 0;
#X connect 17 0 5 0;
#X connect 18 0 3 0;
#X connect 19 0 2 0;
#X connect 20 0 0 0;
#X restore 27 633 pd square25;
#N canvas 962 371 588 557 square26 0;
#X obj 221 271 readsf~;
#X obj 322 59 receive tP;
#X obj 322 119 select 1;
#X obj 115 121 select 1;
#X obj 115 63 receive sP;
#X msg 221 168 0;
#X obj 58 411 select 1;
#X obj 58 380 == 1;
#X obj 58 261 receive initialize;
#X obj 58 292 nbx 5 14 -1e+037 1e+037 0 1 empty empty empty 0 -8 0
10 -262144 -1 -1 25 256;
#X obj 58 349 tabread initialPositions;
#X obj 58 318 t f b;
#X floatatom 354 322 5 0 0 0 - - -;
#X obj 354 366 spigot;
#X obj 354 411 send pieceCaptured;
#X obj 221 318 throw~ master;
#X obj 354 277 env~ 10000;
#X obj 221 121 loadbang;
#X obj 115 92 == 27;
#X obj 322 89 == 27;
#X msg 322 200 0 \, open 26.wav \, 1;
#X connect 0 0 15 0;
#X connect 0 0 16 0;
#X connect 0 1 20 0;
#X connect 1 0 19 0;
#X connect 2 0 20 0;
#X connect 2 0 13 0;
#X connect 3 0 5 0;
#X connect 4 0 18 0;
#X connect 5 0 0 0;
#X connect 6 0 20 0;
#X connect 7 0 6 0;
#X connect 8 0 9 0;
#X connect 9 0 11 0;
#X connect 10 0 7 0;
#X connect 11 0 10 0;
#X connect 11 1 5 0;
#X connect 12 0 13 1;
#X connect 13 0 14 0;
#X connect 16 0 12 0;
#X connect 17 0 5 0;
#X connect 18 0 3 0;
#X connect 19 0 2 0;
#X connect 20 0 0 0;
#X restore 121 633 pd square26;
#N canvas 962 371 588 557 square27 0;
#X obj 221 271 readsf~;
#X obj 322 59 receive tP;
#X obj 322 119 select 1;
#X obj 115 121 select 1;
#X obj 115 63 receive sP;
#X msg 221 168 0;
#X obj 58 411 select 1;
#X obj 58 380 == 1;
#X obj 58 261 receive initialize;
#X obj 58 292 nbx 5 14 -1e+037 1e+037 0 1 empty empty empty 0 -8 0
10 -262144 -1 -1 26 256;
#X obj 58 349 tabread initialPositions;
#X obj 58 318 t f b;
#X floatatom 354 322 5 0 0 0 - - -;
#X obj 354 366 spigot;
#X obj 354 411 send pieceCaptured;
#X obj 221 318 throw~ master;
#X obj 354 277 env~ 10000;
#X obj 221 121 loadbang;
#X obj 115 92 == 28;
#X obj 322 89 == 28;
#X msg 322 200 0 \, open 27.wav \, 1;
#X connect 0 0 15 0;
#X connect 0 0 16 0;
#X connect 0 1 20 0;
#X connect 1 0 19 0;
#X connect 2 0 20 0;
#X connect 2 0 13 0;
#X connect 3 0 5 0;
#X connect 4 0 18 0;
#X connect 5 0 0 0;
#X connect 6 0 20 0;
#X connect 7 0 6 0;
#X connect 8 0 9 0;
#X connect 9 0 11 0;
#X connect 10 0 7 0;
#X connect 11 0 10 0;
#X connect 11 1 5 0;
#X connect 12 0 13 1;
#X connect 13 0 14 0;
#X connect 16 0 12 0;
#X connect 17 0 5 0;
#X connect 18 0 3 0;
#X connect 19 0 2 0;
#X connect 20 0 0 0;
#X restore 212 633 pd square27;
#N canvas 962 371 588 557 square28 0;
#X obj 221 271 readsf~;
#X obj 322 59 receive tP;
#X obj 322 119 select 1;
#X obj 115 121 select 1;
#X obj 115 63 receive sP;
#X msg 221 168 0;
#X obj 58 411 select 1;
#X obj 58 380 == 1;
#X obj 58 261 receive initialize;
#X obj 58 292 nbx 5 14 -1e+037 1e+037 0 1 empty empty empty 0 -8 0
10 -262144 -1 -1 27 256;
#X obj 58 349 tabread initialPositions;
#X obj 58 318 t f b;
#X floatatom 354 322 5 0 0 0 - - -;
#X obj 354 366 spigot;
#X obj 354 411 send pieceCaptured;
#X obj 221 318 throw~ master;
#X obj 354 277 env~ 10000;
#X obj 221 121 loadbang;
#X obj 115 92 == 29;
#X obj 322 89 == 29;
#X msg 322 200 0 \, open 28.wav \, 1;
#X connect 0 0 15 0;
#X connect 0 0 16 0;
#X connect 0 1 20 0;
#X connect 1 0 19 0;
#X connect 2 0 20 0;
#X connect 2 0 13 0;
#X connect 3 0 5 0;
#X connect 4 0 18 0;
#X connect 5 0 0 0;
#X connect 6 0 20 0;
#X connect 7 0 6 0;
#X connect 8 0 9 0;
#X connect 9 0 11 0;
#X connect 10 0 7 0;
#X connect 11 0 10 0;
#X connect 11 1 5 0;
#X connect 12 0 13 1;
#X connect 13 0 14 0;
#X connect 16 0 12 0;
#X connect 17 0 5 0;
#X connect 18 0 3 0;
#X connect 19 0 2 0;
#X connect 20 0 0 0;
#X restore 302 633 pd square28;
#N canvas 1228 289 588 557 square29 0;
#X obj 221 271 readsf~;
#X obj 322 59 receive tP;
#X obj 322 119 select 1;
#X obj 115 121 select 1;
#X obj 115 63 receive sP;
#X msg 221 168 0;
#X obj 58 411 select 1;
#X obj 58 380 == 1;
#X obj 58 261 receive initialize;
#X obj 58 292 nbx 5 14 -1e+037 1e+037 0 1 empty empty empty 0 -8 0
10 -262144 -1 -1 28 256;
#X obj 58 349 tabread initialPositions;
#X obj 58 318 t f b;
#X floatatom 354 322 5 0 0 0 - - -;
#X obj 354 366 spigot;
#X obj 354 411 send pieceCaptured;
#X obj 221 318 throw~ master;
#X obj 354 277 env~ 10000;
#X obj 221 121 loadbang;
#X obj 115 92 == 30;
#X obj 322 89 == 30;
#X msg 322 200 0 \, open 29.wav \, 1;
#X connect 0 0 15 0;
#X connect 0 0 16 0;
#X connect 0 1 20 0;
#X connect 1 0 19 0;
#X connect 2 0 20 0;
#X connect 2 0 13 0;
#X connect 3 0 5 0;
#X connect 4 0 18 0;
#X connect 5 0 0 0;
#X connect 6 0 20 0;
#X connect 7 0 6 0;
#X connect 8 0 9 0;
#X connect 9 0 11 0;
#X connect 10 0 7 0;
#X connect 11 0 10 0;
#X connect 11 1 5 0;
#X connect 12 0 13 1;
#X connect 13 0 14 0;
#X connect 16 0 12 0;
#X connect 17 0 5 0;
#X connect 18 0 3 0;
#X connect 19 0 2 0;
#X connect 20 0 0 0;
#X restore 393 633 pd square29;
#N canvas 962 371 588 557 square30 0;
#X obj 221 271 readsf~;
#X obj 322 59 receive tP;
#X obj 322 119 select 1;
#X obj 115 121 select 1;
#X obj 115 63 receive sP;
#X msg 221 168 0;
#X obj 58 411 select 1;
#X obj 58 380 == 1;
#X obj 58 261 receive initialize;
#X obj 58 292 nbx 5 14 -1e+037 1e+037 0 1 empty empty empty 0 -8 0
10 -262144 -1 -1 29 256;
#X obj 58 349 tabread initialPositions;
#X obj 58 318 t f b;
#X floatatom 354 322 5 0 0 0 - - -;
#X obj 354 366 spigot;
#X obj 354 411 send pieceCaptured;
#X obj 221 318 throw~ master;
#X obj 354 277 env~ 10000;
#X obj 221 121 loadbang;
#X obj 115 92 == 31;
#X obj 322 89 == 31;
#X msg 322 200 0 \, open 30.wav \, 1;
#X connect 0 0 15 0;
#X connect 0 0 16 0;
#X connect 0 1 20 0;
#X connect 1 0 19 0;
#X connect 2 0 20 0;
#X connect 2 0 13 0;
#X connect 3 0 5 0;
#X connect 4 0 18 0;
#X connect 5 0 0 0;
#X connect 6 0 20 0;
#X connect 7 0 6 0;
#X connect 8 0 9 0;
#X connect 9 0 11 0;
#X connect 10 0 7 0;
#X connect 11 0 10 0;
#X connect 11 1 5 0;
#X connect 12 0 13 1;
#X connect 13 0 14 0;
#X connect 16 0 12 0;
#X connect 17 0 5 0;
#X connect 18 0 3 0;
#X connect 19 0 2 0;
#X connect 20 0 0 0;
#X restore 485 633 pd square30;
#N canvas 962 371 588 557 square31 0;
#X obj 221 271 readsf~;
#X obj 322 59 receive tP;
#X obj 322 119 select 1;
#X obj 115 121 select 1;
#X obj 115 63 receive sP;
#X msg 221 168 0;
#X obj 58 411 select 1;
#X obj 58 380 == 1;
#X obj 58 261 receive initialize;
#X obj 58 292 nbx 5 14 -1e+037 1e+037 0 1 empty empty empty 0 -8 0
10 -262144 -1 -1 30 256;
#X obj 58 349 tabread initialPositions;
#X obj 58 318 t f b;
#X floatatom 354 322 5 0 0 0 - - -;
#X obj 354 366 spigot;
#X obj 354 411 send pieceCaptured;
#X obj 221 318 throw~ master;
#X obj 354 277 env~ 10000;
#X obj 221 121 loadbang;
#X obj 115 92 == 32;
#X obj 322 89 == 32;
#X msg 322 200 0 \, open 31.wav \, 1;
#X connect 0 0 15 0;
#X connect 0 0 16 0;
#X connect 0 1 20 0;
#X connect 1 0 19 0;
#X connect 2 0 20 0;
#X connect 2 0 13 0;
#X connect 3 0 5 0;
#X connect 4 0 18 0;
#X connect 5 0 0 0;
#X connect 6 0 20 0;
#X connect 7 0 6 0;
#X connect 8 0 9 0;
#X connect 9 0 11 0;
#X connect 10 0 7 0;
#X connect 11 0 10 0;
#X connect 11 1 5 0;
#X connect 12 0 13 1;
#X connect 13 0 14 0;
#X connect 16 0 12 0;
#X connect 17 0 5 0;
#X connect 18 0 3 0;
#X connect 19 0 2 0;
#X connect 20 0 0 0;
#X restore 575 633 pd square31;
#N canvas 962 371 588 557 square32 0;
#X obj 221 271 readsf~;
#X obj 322 59 receive tP;
#X obj 322 119 select 1;
#X obj 115 121 select 1;
#X obj 115 63 receive sP;
#X msg 221 168 0;
#X obj 58 411 select 1;
#X obj 58 380 == 1;
#X obj 58 261 receive initialize;
#X obj 58 292 nbx 5 14 -1e+037 1e+037 0 1 empty empty empty 0 -8 0
10 -262144 -1 -1 31 256;
#X obj 58 349 tabread initialPositions;
#X obj 58 318 t f b;
#X floatatom 354 322 5 0 0 0 - - -;
#X obj 354 366 spigot;
#X obj 354 411 send pieceCaptured;
#X obj 221 318 throw~ master;
#X obj 354 277 env~ 10000;
#X obj 221 121 loadbang;
#X obj 115 92 == 33;
#X obj 322 89 == 33;
#X msg 322 200 0 \, open 32.wav \, 1;
#X connect 0 0 15 0;
#X connect 0 0 16 0;
#X connect 0 1 20 0;
#X connect 1 0 19 0;
#X connect 2 0 20 0;
#X connect 2 0 13 0;
#X connect 3 0 5 0;
#X connect 4 0 18 0;
#X connect 5 0 0 0;
#X connect 6 0 20 0;
#X connect 7 0 6 0;
#X connect 8 0 9 0;
#X connect 9 0 11 0;
#X connect 10 0 7 0;
#X connect 11 0 10 0;
#X connect 11 1 5 0;
#X connect 12 0 13 1;
#X connect 13 0 14 0;
#X connect 16 0 12 0;
#X connect 17 0 5 0;
#X connect 18 0 3 0;
#X connect 19 0 2 0;
#X connect 20 0 0 0;
#X restore 666 633 pd square32;
#N canvas 962 371 588 557 square33 0;
#X obj 221 271 readsf~;
#X obj 322 59 receive tP;
#X obj 322 119 select 1;
#X obj 115 121 select 1;
#X obj 115 63 receive sP;
#X msg 221 168 0;
#X obj 58 411 select 1;
#X obj 58 380 == 1;
#X obj 58 261 receive initialize;
#X obj 58 292 nbx 5 14 -1e+037 1e+037 0 1 empty empty empty 0 -8 0
10 -262144 -1 -1 32 256;
#X obj 58 349 tabread initialPositions;
#X obj 58 318 t f b;
#X floatatom 354 322 5 0 0 0 - - -;
#X obj 354 366 spigot;
#X obj 354 411 send pieceCaptured;
#X obj 221 318 throw~ master;
#X obj 354 277 env~ 10000;
#X obj 221 122 loadbang;
#X obj 115 92 == 34;
#X obj 322 89 == 34;
#X msg 322 200 0 \, open 33.wav \, 1;
#X connect 0 0 15 0;
#X connect 0 0 16 0;
#X connect 0 1 20 0;
#X connect 1 0 19 0;
#X connect 2 0 20 0;
#X connect 2 0 13 0;
#X connect 3 0 5 0;
#X connect 4 0 18 0;
#X connect 5 0 0 0;
#X connect 6 0 20 0;
#X connect 7 0 6 0;
#X connect 8 0 9 0;
#X connect 9 0 11 0;
#X connect 10 0 7 0;
#X connect 11 0 10 0;
#X connect 11 1 5 0;
#X connect 12 0 13 1;
#X connect 13 0 14 0;
#X connect 16 0 12 0;
#X connect 17 0 5 0;
#X connect 18 0 3 0;
#X connect 19 0 2 0;
#X connect 20 0 0 0;
#X restore 27 669 pd square33;
#N canvas 962 371 588 557 square34 0;
#X obj 221 271 readsf~;
#X obj 322 59 receive tP;
#X obj 322 119 select 1;
#X obj 115 121 select 1;
#X obj 115 63 receive sP;
#X msg 221 168 0;
#X obj 58 411 select 1;
#X obj 58 380 == 1;
#X obj 58 261 receive initialize;
#X obj 58 292 nbx 5 14 -1e+037 1e+037 0 1 empty empty empty 0 -8 0
10 -262144 -1 -1 33 256;
#X obj 58 349 tabread initialPositions;
#X obj 58 318 t f b;
#X floatatom 354 322 5 0 0 0 - - -;
#X obj 354 366 spigot;
#X obj 354 411 send pieceCaptured;
#X obj 221 318 throw~ master;
#X obj 354 277 env~ 10000;
#X obj 221 121 loadbang;
#X obj 115 92 == 35;
#X obj 322 89 == 35;
#X msg 322 200 0 \, open 34.wav \, 1;
#X connect 0 0 15 0;
#X connect 0 0 16 0;
#X connect 0 1 20 0;
#X connect 1 0 19 0;
#X connect 2 0 20 0;
#X connect 2 0 13 0;
#X connect 3 0 5 0;
#X connect 4 0 18 0;
#X connect 5 0 0 0;
#X connect 6 0 20 0;
#X connect 7 0 6 0;
#X connect 8 0 9 0;
#X connect 9 0 11 0;
#X connect 10 0 7 0;
#X connect 11 0 10 0;
#X connect 11 1 5 0;
#X connect 12 0 13 1;
#X connect 13 0 14 0;
#X connect 16 0 12 0;
#X connect 17 0 5 0;
#X connect 18 0 3 0;
#X connect 19 0 2 0;
#X connect 20 0 0 0;
#X restore 121 669 pd square34;
#N canvas 962 371 588 557 square35 0;
#X obj 221 271 readsf~;
#X obj 322 59 receive tP;
#X obj 322 119 select 1;
#X obj 115 121 select 1;
#X obj 115 63 receive sP;
#X msg 221 168 0;
#X obj 58 411 select 1;
#X obj 58 380 == 1;
#X obj 58 261 receive initialize;
#X obj 58 292 nbx 5 14 -1e+037 1e+037 0 1 empty empty empty 0 -8 0
10 -262144 -1 -1 34 256;
#X obj 58 349 tabread initialPositions;
#X obj 58 318 t f b;
#X floatatom 354 322 5 0 0 0 - - -;
#X obj 354 366 spigot;
#X obj 354 411 send pieceCaptured;
#X obj 221 318 throw~ master;
#X obj 354 277 env~ 10000;
#X obj 221 121 loadbang;
#X obj 115 92 == 36;
#X obj 322 89 == 36;
#X msg 322 200 0 \, open 35.wav \, 1;
#X connect 0 0 15 0;
#X connect 0 0 16 0;
#X connect 0 1 20 0;
#X connect 1 0 19 0;
#X connect 2 0 20 0;
#X connect 2 0 13 0;
#X connect 3 0 5 0;
#X connect 4 0 18 0;
#X connect 5 0 0 0;
#X connect 6 0 20 0;
#X connect 7 0 6 0;
#X connect 8 0 9 0;
#X connect 9 0 11 0;
#X connect 10 0 7 0;
#X connect 11 0 10 0;
#X connect 11 1 5 0;
#X connect 12 0 13 1;
#X connect 13 0 14 0;
#X connect 16 0 12 0;
#X connect 17 0 5 0;
#X connect 18 0 3 0;
#X connect 19 0 2 0;
#X connect 20 0 0 0;
#X restore 212 669 pd square35;
#N canvas 962 371 588 557 square36 0;
#X obj 221 271 readsf~;
#X obj 322 59 receive tP;
#X obj 322 119 select 1;
#X obj 115 121 select 1;
#X obj 115 63 receive sP;
#X msg 221 168 0;
#X obj 58 411 select 1;
#X obj 58 380 == 1;
#X obj 58 261 receive initialize;
#X obj 58 292 nbx 5 14 -1e+037 1e+037 0 1 empty empty empty 0 -8 0
10 -262144 -1 -1 35 256;
#X obj 58 349 tabread initialPositions;
#X obj 58 318 t f b;
#X floatatom 354 322 5 0 0 0 - - -;
#X obj 354 366 spigot;
#X obj 354 411 send pieceCaptured;
#X obj 221 318 throw~ master;
#X obj 354 277 env~ 10000;
#X obj 221 121 loadbang;
#X obj 115 92 == 37;
#X obj 322 89 == 37;
#X msg 322 200 0 \, open 36.wav \, 1;
#X connect 0 0 15 0;
#X connect 0 0 16 0;
#X connect 0 1 20 0;
#X connect 1 0 19 0;
#X connect 2 0 20 0;
#X connect 2 0 13 0;
#X connect 3 0 5 0;
#X connect 4 0 18 0;
#X connect 5 0 0 0;
#X connect 6 0 20 0;
#X connect 7 0 6 0;
#X connect 8 0 9 0;
#X connect 9 0 11 0;
#X connect 10 0 7 0;
#X connect 11 0 10 0;
#X connect 11 1 5 0;
#X connect 12 0 13 1;
#X connect 13 0 14 0;
#X connect 16 0 12 0;
#X connect 17 0 5 0;
#X connect 18 0 3 0;
#X connect 19 0 2 0;
#X connect 20 0 0 0;
#X restore 302 669 pd square36;
#N canvas 962 371 588 557 square37 0;
#X obj 221 271 readsf~;
#X obj 322 59 receive tP;
#X obj 322 119 select 1;
#X obj 115 121 select 1;
#X obj 115 63 receive sP;
#X msg 221 168 0;
#X obj 58 411 select 1;
#X obj 58 380 == 1;
#X obj 58 261 receive initialize;
#X obj 58 292 nbx 5 14 -1e+037 1e+037 0 1 empty empty empty 0 -8 0
10 -262144 -1 -1 36 256;
#X obj 58 349 tabread initialPositions;
#X obj 58 318 t f b;
#X floatatom 354 322 5 0 0 0 - - -;
#X obj 354 366 spigot;
#X obj 354 411 send pieceCaptured;
#X obj 221 318 throw~ master;
#X obj 354 277 env~ 10000;
#X obj 221 121 loadbang;
#X obj 115 92 == 38;
#X obj 322 89 == 38;
#X msg 322 200 0 \, open 37.wav \, 1;
#X connect 0 0 15 0;
#X connect 0 0 16 0;
#X connect 0 1 20 0;
#X connect 1 0 19 0;
#X connect 2 0 20 0;
#X connect 2 0 13 0;
#X connect 3 0 5 0;
#X connect 4 0 18 0;
#X connect 5 0 0 0;
#X connect 6 0 20 0;
#X connect 7 0 6 0;
#X connect 8 0 9 0;
#X connect 9 0 11 0;
#X connect 10 0 7 0;
#X connect 11 0 10 0;
#X connect 11 1 5 0;
#X connect 12 0 13 1;
#X connect 13 0 14 0;
#X connect 16 0 12 0;
#X connect 17 0 5 0;
#X connect 18 0 3 0;
#X connect 19 0 2 0;
#X connect 20 0 0 0;
#X restore 393 669 pd square37;
#N canvas 962 371 588 557 square38 0;
#X obj 221 271 readsf~;
#X obj 322 59 receive tP;
#X obj 322 119 select 1;
#X obj 115 121 select 1;
#X obj 115 63 receive sP;
#X msg 221 168 0;
#X obj 58 411 select 1;
#X obj 58 380 == 1;
#X obj 58 261 receive initialize;
#X obj 58 292 nbx 5 14 -1e+037 1e+037 0 1 empty empty empty 0 -8 0
10 -262144 -1 -1 37 256;
#X obj 58 349 tabread initialPositions;
#X obj 58 318 t f b;
#X floatatom 354 322 5 0 0 0 - - -;
#X obj 354 366 spigot;
#X obj 354 411 send pieceCaptured;
#X obj 221 318 throw~ master;
#X obj 354 277 env~ 10000;
#X obj 221 121 loadbang;
#X obj 115 92 == 39;
#X obj 322 89 == 39;
#X msg 322 200 0 \, open 38.wav \, 1;
#X connect 0 0 15 0;
#X connect 0 0 16 0;
#X connect 0 1 20 0;
#X connect 1 0 19 0;
#X connect 2 0 20 0;
#X connect 2 0 13 0;
#X connect 3 0 5 0;
#X connect 4 0 18 0;
#X connect 5 0 0 0;
#X connect 6 0 20 0;
#X connect 7 0 6 0;
#X connect 8 0 9 0;
#X connect 9 0 11 0;
#X connect 10 0 7 0;
#X connect 11 0 10 0;
#X connect 11 1 5 0;
#X connect 12 0 13 1;
#X connect 13 0 14 0;
#X connect 16 0 12 0;
#X connect 17 0 5 0;
#X connect 18 0 3 0;
#X connect 19 0 2 0;
#X connect 20 0 0 0;
#X restore 485 669 pd square38;
#N canvas 962 371 588 557 square39 0;
#X obj 221 271 readsf~;
#X obj 322 59 receive tP;
#X obj 322 119 select 1;
#X obj 115 121 select 1;
#X obj 115 63 receive sP;
#X msg 221 168 0;
#X obj 58 411 select 1;
#X obj 58 380 == 1;
#X obj 58 261 receive initialize;
#X obj 58 292 nbx 5 14 -1e+037 1e+037 0 1 empty empty empty 0 -8 0
10 -262144 -1 -1 38 256;
#X obj 58 349 tabread initialPositions;
#X obj 58 318 t f b;
#X floatatom 354 322 5 0 0 0 - - -;
#X obj 354 366 spigot;
#X obj 354 411 send pieceCaptured;
#X obj 221 318 throw~ master;
#X obj 354 277 env~ 10000;
#X obj 221 121 loadbang;
#X obj 115 92 == 40;
#X obj 322 89 == 40;
#X msg 322 200 0 \, open 39.wav \, 1;
#X connect 0 0 15 0;
#X connect 0 0 16 0;
#X connect 0 1 20 0;
#X connect 1 0 19 0;
#X connect 2 0 20 0;
#X connect 2 0 13 0;
#X connect 3 0 5 0;
#X connect 4 0 18 0;
#X connect 5 0 0 0;
#X connect 6 0 20 0;
#X connect 7 0 6 0;
#X connect 8 0 9 0;
#X connect 9 0 11 0;
#X connect 10 0 7 0;
#X connect 11 0 10 0;
#X connect 11 1 5 0;
#X connect 12 0 13 1;
#X connect 13 0 14 0;
#X connect 16 0 12 0;
#X connect 17 0 5 0;
#X connect 18 0 3 0;
#X connect 19 0 2 0;
#X connect 20 0 0 0;
#X restore 575 669 pd square39;
#N canvas 962 371 588 557 square40 0;
#X obj 221 271 readsf~;
#X obj 322 59 receive tP;
#X obj 322 119 select 1;
#X obj 115 121 select 1;
#X obj 115 63 receive sP;
#X msg 221 168 0;
#X obj 58 411 select 1;
#X obj 58 380 == 1;
#X obj 58 261 receive initialize;
#X obj 58 292 nbx 5 14 -1e+037 1e+037 0 1 empty empty empty 0 -8 0
10 -262144 -1 -1 39 256;
#X obj 58 349 tabread initialPositions;
#X obj 58 318 t f b;
#X floatatom 354 322 5 0 0 0 - - -;
#X obj 354 366 spigot;
#X obj 354 411 send pieceCaptured;
#X obj 221 318 throw~ master;
#X obj 354 277 env~ 10000;
#X obj 221 121 loadbang;
#X obj 115 92 == 41;
#X obj 322 89 == 41;
#X msg 322 200 0 \, open 40.wav \, 1;
#X connect 0 0 15 0;
#X connect 0 0 16 0;
#X connect 0 1 20 0;
#X connect 1 0 19 0;
#X connect 2 0 20 0;
#X connect 2 0 13 0;
#X connect 3 0 5 0;
#X connect 4 0 18 0;
#X connect 5 0 0 0;
#X connect 6 0 20 0;
#X connect 7 0 6 0;
#X connect 8 0 9 0;
#X connect 9 0 11 0;
#X connect 10 0 7 0;
#X connect 11 0 10 0;
#X connect 11 1 5 0;
#X connect 12 0 13 1;
#X connect 13 0 14 0;
#X connect 16 0 12 0;
#X connect 17 0 5 0;
#X connect 18 0 3 0;
#X connect 19 0 2 0;
#X connect 20 0 0 0;
#X restore 666 669 pd square40;
#N canvas 962 371 588 557 square41 0;
#X obj 221 271 readsf~;
#X obj 322 59 receive tP;
#X obj 322 119 select 1;
#X obj 115 121 select 1;
#X obj 115 63 receive sP;
#X msg 221 168 0;
#X obj 58 411 select 1;
#X obj 58 380 == 1;
#X obj 58 261 receive initialize;
#X obj 58 292 nbx 5 14 -1e+037 1e+037 0 1 empty empty empty 0 -8 0
10 -262144 -1 -1 40 256;
#X obj 58 349 tabread initialPositions;
#X obj 58 318 t f b;
#X floatatom 354 322 5 0 0 0 - - -;
#X obj 354 366 spigot;
#X obj 354 411 send pieceCaptured;
#X obj 221 318 throw~ master;
#X obj 354 277 env~ 10000;
#X obj 221 122 loadbang;
#X obj 115 92 == 42;
#X obj 322 89 == 42;
#X msg 322 200 0 \, open 41.wav \, 1;
#X connect 0 0 15 0;
#X connect 0 0 16 0;
#X connect 0 1 20 0;
#X connect 1 0 19 0;
#X connect 2 0 20 0;
#X connect 2 0 13 0;
#X connect 3 0 5 0;
#X connect 4 0 18 0;
#X connect 5 0 0 0;
#X connect 6 0 20 0;
#X connect 7 0 6 0;
#X connect 8 0 9 0;
#X connect 9 0 11 0;
#X connect 10 0 7 0;
#X connect 11 0 10 0;
#X connect 11 1 5 0;
#X connect 12 0 13 1;
#X connect 13 0 14 0;
#X connect 16 0 12 0;
#X connect 17 0 5 0;
#X connect 18 0 3 0;
#X connect 19 0 2 0;
#X connect 20 0 0 0;
#X restore 27 705 pd square41;
#N canvas 962 371 588 557 square42 0;
#X obj 221 271 readsf~;
#X obj 322 59 receive tP;
#X obj 322 119 select 1;
#X obj 115 121 select 1;
#X obj 115 63 receive sP;
#X msg 221 168 0;
#X obj 58 411 select 1;
#X obj 58 380 == 1;
#X obj 58 261 receive initialize;
#X obj 58 292 nbx 5 14 -1e+037 1e+037 0 1 empty empty empty 0 -8 0
10 -262144 -1 -1 41 256;
#X obj 58 349 tabread initialPositions;
#X obj 58 318 t f b;
#X floatatom 354 322 5 0 0 0 - - -;
#X obj 354 366 spigot;
#X obj 354 411 send pieceCaptured;
#X obj 221 318 throw~ master;
#X obj 354 277 env~ 10000;
#X obj 221 121 loadbang;
#X obj 115 92 == 43;
#X obj 322 89 == 43;
#X msg 322 200 0 \, open 42.wav \, 1;
#X connect 0 0 15 0;
#X connect 0 0 16 0;
#X connect 0 1 20 0;
#X connect 1 0 19 0;
#X connect 2 0 20 0;
#X connect 2 0 13 0;
#X connect 3 0 5 0;
#X connect 4 0 18 0;
#X connect 5 0 0 0;
#X connect 6 0 20 0;
#X connect 7 0 6 0;
#X connect 8 0 9 0;
#X connect 9 0 11 0;
#X connect 10 0 7 0;
#X connect 11 0 10 0;
#X connect 11 1 5 0;
#X connect 12 0 13 1;
#X connect 13 0 14 0;
#X connect 16 0 12 0;
#X connect 17 0 5 0;
#X connect 18 0 3 0;
#X connect 19 0 2 0;
#X connect 20 0 0 0;
#X restore 121 705 pd square42;
#N canvas 962 371 588 557 square43 0;
#X obj 221 271 readsf~;
#X obj 322 59 receive tP;
#X obj 322 119 select 1;
#X obj 115 121 select 1;
#X obj 115 63 receive sP;
#X msg 221 168 0;
#X obj 58 411 select 1;
#X obj 58 380 == 1;
#X obj 58 261 receive initialize;
#X obj 58 292 nbx 5 14 -1e+037 1e+037 0 1 empty empty empty 0 -8 0
10 -262144 -1 -1 42 256;
#X obj 58 349 tabread initialPositions;
#X obj 58 318 t f b;
#X floatatom 354 322 5 0 0 0 - - -;
#X obj 354 366 spigot;
#X obj 354 411 send pieceCaptured;
#X obj 221 318 throw~ master;
#X obj 354 277 env~ 10000;
#X obj 221 121 loadbang;
#X obj 115 92 == 44;
#X obj 322 89 == 44;
#X msg 322 200 0 \, open 43.wav \, 1;
#X connect 0 0 15 0;
#X connect 0 0 16 0;
#X connect 0 1 20 0;
#X connect 1 0 19 0;
#X connect 2 0 20 0;
#X connect 2 0 13 0;
#X connect 3 0 5 0;
#X connect 4 0 18 0;
#X connect 5 0 0 0;
#X connect 6 0 20 0;
#X connect 7 0 6 0;
#X connect 8 0 9 0;
#X connect 9 0 11 0;
#X connect 10 0 7 0;
#X connect 11 0 10 0;
#X connect 11 1 5 0;
#X connect 12 0 13 1;
#X connect 13 0 14 0;
#X connect 16 0 12 0;
#X connect 17 0 5 0;
#X connect 18 0 3 0;
#X connect 19 0 2 0;
#X connect 20 0 0 0;
#X restore 212 705 pd square43;
#N canvas 962 371 588 557 square44 0;
#X obj 221 271 readsf~;
#X obj 322 59 receive tP;
#X obj 322 119 select 1;
#X obj 115 121 select 1;
#X obj 115 63 receive sP;
#X msg 221 168 0;
#X obj 58 411 select 1;
#X obj 58 380 == 1;
#X obj 58 261 receive initialize;
#X obj 58 292 nbx 5 14 -1e+037 1e+037 0 1 empty empty empty 0 -8 0
10 -262144 -1 -1 43 256;
#X obj 58 349 tabread initialPositions;
#X obj 58 318 t f b;
#X floatatom 354 322 5 0 0 0 - - -;
#X obj 354 366 spigot;
#X obj 354 411 send pieceCaptured;
#X obj 221 318 throw~ master;
#X obj 354 277 env~ 10000;
#X obj 221 121 loadbang;
#X obj 115 92 == 45;
#X obj 322 89 == 45;
#X msg 322 200 0 \, open 44.wav \, 1;
#X connect 0 0 15 0;
#X connect 0 0 16 0;
#X connect 0 1 20 0;
#X connect 1 0 19 0;
#X connect 2 0 20 0;
#X connect 2 0 13 0;
#X connect 3 0 5 0;
#X connect 4 0 18 0;
#X connect 5 0 0 0;
#X connect 6 0 20 0;
#X connect 7 0 6 0;
#X connect 8 0 9 0;
#X connect 9 0 11 0;
#X connect 10 0 7 0;
#X connect 11 0 10 0;
#X connect 11 1 5 0;
#X connect 12 0 13 1;
#X connect 13 0 14 0;
#X connect 16 0 12 0;
#X connect 17 0 5 0;
#X connect 18 0 3 0;
#X connect 19 0 2 0;
#X connect 20 0 0 0;
#X restore 302 705 pd square44;
#N canvas 962 371 588 557 square45 0;
#X obj 221 271 readsf~;
#X obj 322 59 receive tP;
#X obj 322 119 select 1;
#X obj 115 121 select 1;
#X obj 115 63 receive sP;
#X msg 221 168 0;
#X obj 58 411 select 1;
#X obj 58 380 == 1;
#X obj 58 261 receive initialize;
#X obj 58 292 nbx 5 14 -1e+037 1e+037 0 1 empty empty empty 0 -8 0
10 -262144 -1 -1 44 256;
#X obj 58 349 tabread initialPositions;
#X obj 58 318 t f b;
#X floatatom 354 322 5 0 0 0 - - -;
#X obj 354 366 spigot;
#X obj 354 411 send pieceCaptured;
#X obj 221 318 throw~ master;
#X obj 354 277 env~ 10000;
#X obj 221 121 loadbang;
#X obj 115 92 == 46;
#X obj 322 89 == 46;
#X msg 322 200 0 \, open 45.wav \, 1;
#X connect 0 0 15 0;
#X connect 0 0 16 0;
#X connect 0 1 20 0;
#X connect 1 0 19 0;
#X connect 2 0 20 0;
#X connect 2 0 13 0;
#X connect 3 0 5 0;
#X connect 4 0 18 0;
#X connect 5 0 0 0;
#X connect 6 0 20 0;
#X connect 7 0 6 0;
#X connect 8 0 9 0;
#X connect 9 0 11 0;
#X connect 10 0 7 0;
#X connect 11 0 10 0;
#X connect 11 1 5 0;
#X connect 12 0 13 1;
#X connect 13 0 14 0;
#X connect 16 0 12 0;
#X connect 17 0 5 0;
#X connect 18 0 3 0;
#X connect 19 0 2 0;
#X connect 20 0 0 0;
#X restore 393 705 pd square45;
#N canvas 962 371 588 557 square46 0;
#X obj 221 271 readsf~;
#X obj 322 59 receive tP;
#X obj 322 119 select 1;
#X obj 115 121 select 1;
#X obj 115 63 receive sP;
#X msg 221 168 0;
#X obj 58 411 select 1;
#X obj 58 380 == 1;
#X obj 58 261 receive initialize;
#X obj 58 292 nbx 5 14 -1e+037 1e+037 0 1 empty empty empty 0 -8 0
10 -262144 -1 -1 45 256;
#X obj 58 349 tabread initialPositions;
#X obj 58 318 t f b;
#X floatatom 354 322 5 0 0 0 - - -;
#X obj 354 366 spigot;
#X obj 354 411 send pieceCaptured;
#X obj 221 318 throw~ master;
#X obj 354 277 env~ 10000;
#X obj 221 121 loadbang;
#X obj 115 92 == 47;
#X obj 322 89 == 47;
#X msg 322 200 0 \, open 46.wav \, 1;
#X connect 0 0 15 0;
#X connect 0 0 16 0;
#X connect 0 1 20 0;
#X connect 1 0 19 0;
#X connect 2 0 20 0;
#X connect 2 0 13 0;
#X connect 3 0 5 0;
#X connect 4 0 18 0;
#X connect 5 0 0 0;
#X connect 6 0 20 0;
#X connect 7 0 6 0;
#X connect 8 0 9 0;
#X connect 9 0 11 0;
#X connect 10 0 7 0;
#X connect 11 0 10 0;
#X connect 11 1 5 0;
#X connect 12 0 13 1;
#X connect 13 0 14 0;
#X connect 16 0 12 0;
#X connect 17 0 5 0;
#X connect 18 0 3 0;
#X connect 19 0 2 0;
#X connect 20 0 0 0;
#X restore 485 705 pd square46;
#N canvas 962 371 588 557 square47 0;
#X obj 221 271 readsf~;
#X obj 322 59 receive tP;
#X obj 322 119 select 1;
#X obj 115 121 select 1;
#X obj 115 63 receive sP;
#X msg 221 168 0;
#X obj 58 411 select 1;
#X obj 58 380 == 1;
#X obj 58 261 receive initialize;
#X obj 58 292 nbx 5 14 -1e+037 1e+037 0 1 empty empty empty 0 -8 0
10 -262144 -1 -1 46 256;
#X obj 58 349 tabread initialPositions;
#X obj 58 318 t f b;
#X floatatom 354 322 5 0 0 0 - - -;
#X obj 354 366 spigot;
#X obj 354 411 send pieceCaptured;
#X obj 221 318 throw~ master;
#X obj 354 277 env~ 10000;
#X obj 221 121 loadbang;
#X obj 115 92 == 48;
#X obj 322 89 == 48;
#X msg 322 200 0 \, open 47.wav \, 1;
#X connect 0 0 15 0;
#X connect 0 0 16 0;
#X connect 0 1 20 0;
#X connect 1 0 19 0;
#X connect 2 0 20 0;
#X connect 2 0 13 0;
#X connect 3 0 5 0;
#X connect 4 0 18 0;
#X connect 5 0 0 0;
#X connect 6 0 20 0;
#X connect 7 0 6 0;
#X connect 8 0 9 0;
#X connect 9 0 11 0;
#X connect 10 0 7 0;
#X connect 11 0 10 0;
#X connect 11 1 5 0;
#X connect 12 0 13 1;
#X connect 13 0 14 0;
#X connect 16 0 12 0;
#X connect 17 0 5 0;
#X connect 18 0 3 0;
#X connect 19 0 2 0;
#X connect 20 0 0 0;
#X restore 575 705 pd square47;
#N canvas 962 371 588 557 square48 0;
#X obj 221 271 readsf~;
#X obj 322 59 receive tP;
#X obj 322 119 select 1;
#X obj 115 121 select 1;
#X obj 115 63 receive sP;
#X msg 221 168 0;
#X obj 58 411 select 1;
#X obj 58 380 == 1;
#X obj 58 261 receive initialize;
#X obj 58 292 nbx 5 14 -1e+037 1e+037 0 1 empty empty empty 0 -8 0
10 -262144 -1 -1 47 256;
#X obj 58 349 tabread initialPositions;
#X obj 58 318 t f b;
#X floatatom 354 322 5 0 0 0 - - -;
#X obj 354 366 spigot;
#X obj 354 411 send pieceCaptured;
#X obj 221 318 throw~ master;
#X obj 354 277 env~ 10000;
#X obj 221 121 loadbang;
#X obj 115 92 == 49;
#X obj 322 89 == 49;
#X msg 322 200 0 \, open 48.wav \, 1;
#X connect 0 0 15 0;
#X connect 0 0 16 0;
#X connect 0 1 20 0;
#X connect 1 0 19 0;
#X connect 2 0 20 0;
#X connect 2 0 13 0;
#X connect 3 0 5 0;
#X connect 4 0 18 0;
#X connect 5 0 0 0;
#X connect 6 0 20 0;
#X connect 7 0 6 0;
#X connect 8 0 9 0;
#X connect 9 0 11 0;
#X connect 10 0 7 0;
#X connect 11 0 10 0;
#X connect 11 1 5 0;
#X connect 12 0 13 1;
#X connect 13 0 14 0;
#X connect 16 0 12 0;
#X connect 17 0 5 0;
#X connect 18 0 3 0;
#X connect 19 0 2 0;
#X connect 20 0 0 0;
#X restore 666 705 pd square48;
#N canvas 962 371 588 557 square49 0;
#X obj 221 271 readsf~;
#X obj 322 59 receive tP;
#X obj 322 119 select 1;
#X obj 115 121 select 1;
#X obj 115 63 receive sP;
#X msg 221 168 0;
#X obj 58 411 select 1;
#X obj 58 380 == 1;
#X obj 58 261 receive initialize;
#X obj 58 292 nbx 5 14 -1e+037 1e+037 0 1 empty empty empty 0 -8 0
10 -262144 -1 -1 48 256;
#X obj 58 349 tabread initialPositions;
#X obj 58 318 t f b;
#X floatatom 354 322 5 0 0 0 - - -;
#X obj 354 366 spigot;
#X obj 354 411 send pieceCaptured;
#X obj 221 318 throw~ master;
#X obj 354 277 env~ 10000;
#X obj 221 122 loadbang;
#X obj 115 92 == 50;
#X obj 322 89 == 50;
#X msg 322 200 0 \, open 49.wav \, 1;
#X connect 0 0 15 0;
#X connect 0 0 16 0;
#X connect 0 1 20 0;
#X connect 1 0 19 0;
#X connect 2 0 20 0;
#X connect 2 0 13 0;
#X connect 3 0 5 0;
#X connect 4 0 18 0;
#X connect 5 0 0 0;
#X connect 6 0 20 0;
#X connect 7 0 6 0;
#X connect 8 0 9 0;
#X connect 9 0 11 0;
#X connect 10 0 7 0;
#X connect 11 0 10 0;
#X connect 11 1 5 0;
#X connect 12 0 13 1;
#X connect 13 0 14 0;
#X connect 16 0 12 0;
#X connect 17 0 5 0;
#X connect 18 0 3 0;
#X connect 19 0 2 0;
#X connect 20 0 0 0;
#X restore 27 741 pd square49;
#N canvas 1036 360 588 557 square50 0;
#X obj 221 271 readsf~;
#X obj 322 59 receive tP;
#X obj 322 119 select 1;
#X obj 115 121 select 1;
#X obj 115 63 receive sP;
#X msg 221 168 0;
#X obj 58 411 select 1;
#X obj 58 380 == 1;
#X obj 58 261 receive initialize;
#X obj 58 292 nbx 5 14 -1e+037 1e+037 0 1 empty empty empty 0 -8 0
10 -262144 -1 -1 49 256;
#X obj 58 349 tabread initialPositions;
#X obj 58 318 t f b;
#X floatatom 354 322 5 0 0 0 - - -;
#X obj 354 366 spigot;
#X obj 354 411 send pieceCaptured;
#X obj 221 318 throw~ master;
#X obj 354 277 env~ 10000;
#X obj 221 121 loadbang;
#X obj 115 92 == 51;
#X obj 322 89 == 51;
#X msg 322 200 0 \, open 50.wav \, 1;
#X connect 0 0 15 0;
#X connect 0 0 16 0;
#X connect 0 1 20 0;
#X connect 1 0 19 0;
#X connect 2 0 20 0;
#X connect 2 0 13 0;
#X connect 3 0 5 0;
#X connect 4 0 18 0;
#X connect 5 0 0 0;
#X connect 6 0 20 0;
#X connect 7 0 6 0;
#X connect 8 0 9 0;
#X connect 9 0 11 0;
#X connect 10 0 7 0;
#X connect 11 0 10 0;
#X connect 11 1 5 0;
#X connect 12 0 13 1;
#X connect 13 0 14 0;
#X connect 16 0 12 0;
#X connect 17 0 5 0;
#X connect 18 0 3 0;
#X connect 19 0 2 0;
#X connect 20 0 0 0;
#X restore 121 741 pd square50;
#N canvas 962 371 588 557 square51 0;
#X obj 221 271 readsf~;
#X obj 322 59 receive tP;
#X obj 322 119 select 1;
#X obj 115 121 select 1;
#X obj 115 63 receive sP;
#X msg 221 168 0;
#X obj 58 411 select 1;
#X obj 58 380 == 1;
#X obj 58 261 receive initialize;
#X obj 58 292 nbx 5 14 -1e+037 1e+037 0 1 empty empty empty 0 -8 0
10 -262144 -1 -1 50 256;
#X obj 58 349 tabread initialPositions;
#X obj 58 318 t f b;
#X floatatom 354 322 5 0 0 0 - - -;
#X obj 354 366 spigot;
#X obj 354 411 send pieceCaptured;
#X obj 221 318 throw~ master;
#X obj 354 277 env~ 10000;
#X obj 221 121 loadbang;
#X obj 115 92 == 52;
#X obj 322 89 == 52;
#X msg 322 200 0 \, open 51.wav \, 1;
#X connect 0 0 15 0;
#X connect 0 0 16 0;
#X connect 0 1 20 0;
#X connect 1 0 19 0;
#X connect 2 0 20 0;
#X connect 2 0 13 0;
#X connect 3 0 5 0;
#X connect 4 0 18 0;
#X connect 5 0 0 0;
#X connect 6 0 20 0;
#X connect 7 0 6 0;
#X connect 8 0 9 0;
#X connect 9 0 11 0;
#X connect 10 0 7 0;
#X connect 11 0 10 0;
#X connect 11 1 5 0;
#X connect 12 0 13 1;
#X connect 13 0 14 0;
#X connect 16 0 12 0;
#X connect 17 0 5 0;
#X connect 18 0 3 0;
#X connect 19 0 2 0;
#X connect 20 0 0 0;
#X restore 212 741 pd square51;
#N canvas 962 371 588 557 square52 0;
#X obj 221 271 readsf~;
#X obj 322 59 receive tP;
#X obj 322 119 select 1;
#X obj 115 121 select 1;
#X obj 115 63 receive sP;
#X msg 221 168 0;
#X obj 58 411 select 1;
#X obj 58 380 == 1;
#X obj 58 261 receive initialize;
#X obj 58 292 nbx 5 14 -1e+037 1e+037 0 1 empty empty empty 0 -8 0
10 -262144 -1 -1 51 256;
#X obj 58 349 tabread initialPositions;
#X obj 58 318 t f b;
#X floatatom 354 322 5 0 0 0 - - -;
#X obj 354 366 spigot;
#X obj 354 411 send pieceCaptured;
#X obj 221 318 throw~ master;
#X obj 354 277 env~ 10000;
#X obj 221 121 loadbang;
#X obj 115 92 == 53;
#X obj 322 89 == 53;
#X msg 322 200 0 \, open 52.wav \, 1;
#X connect 0 0 15 0;
#X connect 0 0 16 0;
#X connect 0 1 20 0;
#X connect 1 0 19 0;
#X connect 2 0 20 0;
#X connect 2 0 13 0;
#X connect 3 0 5 0;
#X connect 4 0 18 0;
#X connect 5 0 0 0;
#X connect 6 0 20 0;
#X connect 7 0 6 0;
#X connect 8 0 9 0;
#X connect 9 0 11 0;
#X connect 10 0 7 0;
#X connect 11 0 10 0;
#X connect 11 1 5 0;
#X connect 12 0 13 1;
#X connect 13 0 14 0;
#X connect 16 0 12 0;
#X connect 17 0 5 0;
#X connect 18 0 3 0;
#X connect 19 0 2 0;
#X connect 20 0 0 0;
#X restore 302 741 pd square52;
#N canvas 962 371 588 557 square53 0;
#X obj 221 271 readsf~;
#X obj 322 59 receive tP;
#X obj 322 119 select 1;
#X obj 115 121 select 1;
#X obj 115 63 receive sP;
#X msg 221 168 0;
#X obj 58 411 select 1;
#X obj 58 380 == 1;
#X obj 58 261 receive initialize;
#X obj 58 292 nbx 5 14 -1e+037 1e+037 0 1 empty empty empty 0 -8 0
10 -262144 -1 -1 52 256;
#X obj 58 349 tabread initialPositions;
#X obj 58 318 t f b;
#X floatatom 354 322 5 0 0 0 - - -;
#X obj 354 366 spigot;
#X obj 354 411 send pieceCaptured;
#X obj 221 318 throw~ master;
#X obj 354 277 env~ 10000;
#X obj 221 121 loadbang;
#X obj 115 92 == 54;
#X obj 322 89 == 54;
#X msg 322 200 0 \, open 53.wav \, 1;
#X connect 0 0 15 0;
#X connect 0 0 16 0;
#X connect 0 1 20 0;
#X connect 1 0 19 0;
#X connect 2 0 20 0;
#X connect 2 0 13 0;
#X connect 3 0 5 0;
#X connect 4 0 18 0;
#X connect 5 0 0 0;
#X connect 6 0 20 0;
#X connect 7 0 6 0;
#X connect 8 0 9 0;
#X connect 9 0 11 0;
#X connect 10 0 7 0;
#X connect 11 0 10 0;
#X connect 11 1 5 0;
#X connect 12 0 13 1;
#X connect 13 0 14 0;
#X connect 16 0 12 0;
#X connect 17 0 5 0;
#X connect 18 0 3 0;
#X connect 19 0 2 0;
#X connect 20 0 0 0;
#X restore 393 741 pd square53;
#N canvas 962 371 588 557 square54 0;
#X obj 221 271 readsf~;
#X obj 322 59 receive tP;
#X obj 322 119 select 1;
#X obj 115 121 select 1;
#X obj 115 63 receive sP;
#X msg 221 168 0;
#X obj 58 411 select 1;
#X obj 58 380 == 1;
#X obj 58 261 receive initialize;
#X obj 58 292 nbx 5 14 -1e+037 1e+037 0 1 empty empty empty 0 -8 0
10 -262144 -1 -1 53 256;
#X obj 58 349 tabread initialPositions;
#X obj 58 318 t f b;
#X floatatom 354 322 5 0 0 0 - - -;
#X obj 354 366 spigot;
#X obj 354 411 send pieceCaptured;
#X obj 221 318 throw~ master;
#X obj 354 277 env~ 10000;
#X obj 221 121 loadbang;
#X obj 115 92 == 55;
#X obj 322 89 == 55;
#X msg 322 200 0 \, open 54.wav \, 1;
#X connect 0 0 15 0;
#X connect 0 0 16 0;
#X connect 0 1 20 0;
#X connect 1 0 19 0;
#X connect 2 0 20 0;
#X connect 2 0 13 0;
#X connect 3 0 5 0;
#X connect 4 0 18 0;
#X connect 5 0 0 0;
#X connect 6 0 20 0;
#X connect 7 0 6 0;
#X connect 8 0 9 0;
#X connect 9 0 11 0;
#X connect 10 0 7 0;
#X connect 11 0 10 0;
#X connect 11 1 5 0;
#X connect 12 0 13 1;
#X connect 13 0 14 0;
#X connect 16 0 12 0;
#X connect 17 0 5 0;
#X connect 18 0 3 0;
#X connect 19 0 2 0;
#X connect 20 0 0 0;
#X restore 485 741 pd square54;
#N canvas 962 371 588 557 square55 0;
#X obj 221 271 readsf~;
#X obj 322 59 receive tP;
#X obj 322 119 select 1;
#X obj 115 121 select 1;
#X obj 115 63 receive sP;
#X msg 221 168 0;
#X obj 58 411 select 1;
#X obj 58 380 == 1;
#X obj 58 261 receive initialize;
#X obj 58 292 nbx 5 14 -1e+037 1e+037 0 1 empty empty empty 0 -8 0
10 -262144 -1 -1 54 256;
#X obj 58 349 tabread initialPositions;
#X obj 58 318 t f b;
#X floatatom 354 322 5 0 0 0 - - -;
#X obj 354 366 spigot;
#X obj 354 411 send pieceCaptured;
#X obj 221 318 throw~ master;
#X obj 354 277 env~ 10000;
#X obj 221 121 loadbang;
#X obj 115 92 == 56;
#X obj 322 89 == 56;
#X msg 322 200 0 \, open 55.wav \, 1;
#X connect 0 0 15 0;
#X connect 0 0 16 0;
#X connect 0 1 20 0;
#X connect 1 0 19 0;
#X connect 2 0 20 0;
#X connect 2 0 13 0;
#X connect 3 0 5 0;
#X connect 4 0 18 0;
#X connect 5 0 0 0;
#X connect 6 0 20 0;
#X connect 7 0 6 0;
#X connect 8 0 9 0;
#X connect 9 0 11 0;
#X connect 10 0 7 0;
#X connect 11 0 10 0;
#X connect 11 1 5 0;
#X connect 12 0 13 1;
#X connect 13 0 14 0;
#X connect 16 0 12 0;
#X connect 17 0 5 0;
#X connect 18 0 3 0;
#X connect 19 0 2 0;
#X connect 20 0 0 0;
#X restore 575 741 pd square55;
#N canvas 962 371 588 557 square56 0;
#X obj 221 271 readsf~;
#X obj 322 59 receive tP;
#X obj 322 119 select 1;
#X obj 115 121 select 1;
#X obj 115 63 receive sP;
#X msg 221 168 0;
#X obj 58 411 select 1;
#X obj 58 380 == 1;
#X obj 58 261 receive initialize;
#X obj 58 292 nbx 5 14 -1e+037 1e+037 0 1 empty empty empty 0 -8 0
10 -262144 -1 -1 55 256;
#X obj 58 349 tabread initialPositions;
#X obj 58 318 t f b;
#X floatatom 354 322 5 0 0 0 - - -;
#X obj 354 366 spigot;
#X obj 354 411 send pieceCaptured;
#X obj 221 318 throw~ master;
#X obj 354 277 env~ 10000;
#X obj 221 121 loadbang;
#X obj 115 92 == 57;
#X obj 322 89 == 57;
#X msg 322 200 0 \, open 56.wav \, 1;
#X connect 0 0 15 0;
#X connect 0 0 16 0;
#X connect 0 1 20 0;
#X connect 1 0 19 0;
#X connect 2 0 20 0;
#X connect 2 0 13 0;
#X connect 3 0 5 0;
#X connect 4 0 18 0;
#X connect 5 0 0 0;
#X connect 6 0 20 0;
#X connect 7 0 6 0;
#X connect 8 0 9 0;
#X connect 9 0 11 0;
#X connect 10 0 7 0;
#X connect 11 0 10 0;
#X connect 11 1 5 0;
#X connect 12 0 13 1;
#X connect 13 0 14 0;
#X connect 16 0 12 0;
#X connect 17 0 5 0;
#X connect 18 0 3 0;
#X connect 19 0 2 0;
#X connect 20 0 0 0;
#X restore 666 741 pd square56;
#N canvas 962 371 588 557 square57 0;
#X obj 221 271 readsf~;
#X obj 322 59 receive tP;
#X obj 322 119 select 1;
#X obj 115 121 select 1;
#X obj 115 63 receive sP;
#X msg 221 168 0;
#X obj 58 411 select 1;
#X obj 58 380 == 1;
#X obj 58 261 receive initialize;
#X obj 58 292 nbx 5 14 -1e+037 1e+037 0 1 empty empty empty 0 -8 0
10 -262144 -1 -1 56 256;
#X obj 58 349 tabread initialPositions;
#X obj 58 318 t f b;
#X floatatom 354 322 5 0 0 0 - - -;
#X obj 354 366 spigot;
#X obj 354 411 send pieceCaptured;
#X obj 221 318 throw~ master;
#X obj 354 277 env~ 10000;
#X obj 221 122 loadbang;
#X obj 115 92 == 58;
#X obj 322 89 == 58;
#X msg 322 200 0 \, open 57.wav \, 1;
#X connect 0 0 15 0;
#X connect 0 0 16 0;
#X connect 0 1 20 0;
#X connect 1 0 19 0;
#X connect 2 0 20 0;
#X connect 2 0 13 0;
#X connect 3 0 5 0;
#X connect 4 0 18 0;
#X connect 5 0 0 0;
#X connect 6 0 20 0;
#X connect 7 0 6 0;
#X connect 8 0 9 0;
#X connect 9 0 11 0;
#X connect 10 0 7 0;
#X connect 11 0 10 0;
#X connect 11 1 5 0;
#X connect 12 0 13 1;
#X connect 13 0 14 0;
#X connect 16 0 12 0;
#X connect 17 0 5 0;
#X connect 18 0 3 0;
#X connect 19 0 2 0;
#X connect 20 0 0 0;
#X restore 27 777 pd square57;
#N canvas 962 371 588 557 square58 0;
#X obj 221 271 readsf~;
#X obj 322 59 receive tP;
#X obj 322 119 select 1;
#X obj 115 121 select 1;
#X obj 115 63 receive sP;
#X msg 221 168 0;
#X obj 58 411 select 1;
#X obj 58 380 == 1;
#X obj 58 261 receive initialize;
#X obj 58 292 nbx 5 14 -1e+037 1e+037 0 1 empty empty empty 0 -8 0
10 -262144 -1 -1 57 256;
#X obj 58 349 tabread initialPositions;
#X obj 58 318 t f b;
#X floatatom 354 322 5 0 0 0 - - -;
#X obj 354 366 spigot;
#X obj 354 411 send pieceCaptured;
#X obj 221 318 throw~ master;
#X obj 354 277 env~ 10000;
#X obj 221 121 loadbang;
#X obj 115 92 == 59;
#X obj 322 89 == 59;
#X msg 322 200 0 \, open 58.wav \, 1;
#X connect 0 0 15 0;
#X connect 0 0 16 0;
#X connect 0 1 20 0;
#X connect 1 0 19 0;
#X connect 2 0 20 0;
#X connect 2 0 13 0;
#X connect 3 0 5 0;
#X connect 4 0 18 0;
#X connect 5 0 0 0;
#X connect 6 0 20 0;
#X connect 7 0 6 0;
#X connect 8 0 9 0;
#X connect 9 0 11 0;
#X connect 10 0 7 0;
#X connect 11 0 10 0;
#X connect 11 1 5 0;
#X connect 12 0 13 1;
#X connect 13 0 14 0;
#X connect 16 0 12 0;
#X connect 17 0 5 0;
#X connect 18 0 3 0;
#X connect 19 0 2 0;
#X connect 20 0 0 0;
#X restore 121 777 pd square58;
#N canvas 962 371 588 557 square59 0;
#X obj 221 271 readsf~;
#X obj 322 59 receive tP;
#X obj 322 119 select 1;
#X obj 115 121 select 1;
#X obj 115 63 receive sP;
#X msg 221 168 0;
#X obj 58 411 select 1;
#X obj 58 380 == 1;
#X obj 58 261 receive initialize;
#X obj 58 292 nbx 5 14 -1e+037 1e+037 0 1 empty empty empty 0 -8 0
10 -262144 -1 -1 57 256;
#X obj 58 349 tabread initialPositions;
#X obj 58 318 t f b;
#X floatatom 354 322 5 0 0 0 - - -;
#X obj 354 366 spigot;
#X obj 354 411 send pieceCaptured;
#X obj 221 318 throw~ master;
#X obj 354 277 env~ 10000;
#X obj 221 121 loadbang;
#X obj 115 92 == 59;
#X obj 322 89 == 59;
#X msg 322 200 0 \, open 59.wav \, 1;
#X connect 0 0 15 0;
#X connect 0 0 16 0;
#X connect 0 1 20 0;
#X connect 1 0 19 0;
#X connect 2 0 20 0;
#X connect 2 0 13 0;
#X connect 3 0 5 0;
#X connect 4 0 18 0;
#X connect 5 0 0 0;
#X connect 6 0 20 0;
#X connect 7 0 6 0;
#X connect 8 0 9 0;
#X connect 9 0 11 0;
#X connect 10 0 7 0;
#X connect 11 0 10 0;
#X connect 11 1 5 0;
#X connect 12 0 13 1;
#X connect 13 0 14 0;
#X connect 16 0 12 0;
#X connect 17 0 5 0;
#X connect 18 0 3 0;
#X connect 19 0 2 0;
#X connect 20 0 0 0;
#X restore 212 777 pd square59;
#N canvas 962 371 588 557 square60 0;
#X obj 221 271 readsf~;
#X obj 322 59 receive tP;
#X obj 322 119 select 1;
#X obj 115 121 select 1;
#X obj 115 63 receive sP;
#X msg 221 168 0;
#X obj 58 411 select 1;
#X obj 58 380 == 1;
#X obj 58 261 receive initialize;
#X obj 58 292 nbx 5 14 -1e+037 1e+037 0 1 empty empty empty 0 -8 0
10 -262144 -1 -1 59 256;
#X obj 58 349 tabread initialPositions;
#X obj 58 318 t f b;
#X floatatom 354 322 5 0 0 0 - - -;
#X obj 354 366 spigot;
#X obj 354 411 send pieceCaptured;
#X obj 221 318 throw~ master;
#X obj 354 277 env~ 10000;
#X obj 221 121 loadbang;
#X obj 115 92 == 61;
#X obj 322 89 == 61;
#X msg 322 200 0 \, open 60.wav \, 1;
#X connect 0 0 15 0;
#X connect 0 0 16 0;
#X connect 0 1 20 0;
#X connect 1 0 19 0;
#X connect 2 0 20 0;
#X connect 2 0 13 0;
#X connect 3 0 5 0;
#X connect 4 0 18 0;
#X connect 5 0 0 0;
#X connect 6 0 20 0;
#X connect 7 0 6 0;
#X connect 8 0 9 0;
#X connect 9 0 11 0;
#X connect 10 0 7 0;
#X connect 11 0 10 0;
#X connect 11 1 5 0;
#X connect 12 0 13 1;
#X connect 13 0 14 0;
#X connect 16 0 12 0;
#X connect 17 0 5 0;
#X connect 18 0 3 0;
#X connect 19 0 2 0;
#X connect 20 0 0 0;
#X restore 302 777 pd square60;
#N canvas 962 371 588 557 square61 0;
#X obj 221 271 readsf~;
#X obj 322 59 receive tP;
#X obj 322 119 select 1;
#X obj 115 121 select 1;
#X obj 115 63 receive sP;
#X msg 221 168 0;
#X obj 58 411 select 1;
#X obj 58 380 == 1;
#X obj 58 261 receive initialize;
#X obj 58 292 nbx 5 14 -1e+037 1e+037 0 1 empty empty empty 0 -8 0
10 -262144 -1 -1 60 256;
#X obj 58 349 tabread initialPositions;
#X obj 58 318 t f b;
#X floatatom 354 322 5 0 0 0 - - -;
#X obj 354 366 spigot;
#X obj 354 411 send pieceCaptured;
#X obj 221 318 throw~ master;
#X obj 354 277 env~ 10000;
#X obj 221 121 loadbang;
#X obj 115 92 == 62;
#X obj 322 89 == 62;
#X msg 322 200 0 \, open 61.wav \, 1;
#X connect 0 0 15 0;
#X connect 0 0 16 0;
#X connect 0 1 20 0;
#X connect 1 0 19 0;
#X connect 2 0 20 0;
#X connect 2 0 13 0;
#X connect 3 0 5 0;
#X connect 4 0 18 0;
#X connect 5 0 0 0;
#X connect 6 0 20 0;
#X connect 7 0 6 0;
#X connect 8 0 9 0;
#X connect 9 0 11 0;
#X connect 10 0 7 0;
#X connect 11 0 10 0;
#X connect 11 1 5 0;
#X connect 12 0 13 1;
#X connect 13 0 14 0;
#X connect 16 0 12 0;
#X connect 17 0 5 0;
#X connect 18 0 3 0;
#X connect 19 0 2 0;
#X connect 20 0 0 0;
#X restore 393 777 pd square61;
#N canvas 962 371 588 557 square62 0;
#X obj 221 271 readsf~;
#X obj 322 59 receive tP;
#X obj 322 119 select 1;
#X obj 115 121 select 1;
#X obj 115 63 receive sP;
#X msg 221 168 0;
#X obj 58 411 select 1;
#X obj 58 380 == 1;
#X obj 58 261 receive initialize;
#X obj 58 292 nbx 5 14 -1e+037 1e+037 0 1 empty empty empty 0 -8 0
10 -262144 -1 -1 61 256;
#X obj 58 349 tabread initialPositions;
#X obj 58 318 t f b;
#X floatatom 354 322 5 0 0 0 - - -;
#X obj 354 366 spigot;
#X obj 354 411 send pieceCaptured;
#X obj 221 318 throw~ master;
#X obj 354 277 env~ 10000;
#X obj 221 121 loadbang;
#X obj 115 92 == 63;
#X obj 322 89 == 63;
#X msg 322 200 0 \, open 62.wav \, 1;
#X connect 0 0 15 0;
#X connect 0 0 16 0;
#X connect 0 1 20 0;
#X connect 1 0 19 0;
#X connect 2 0 20 0;
#X connect 2 0 13 0;
#X connect 3 0 5 0;
#X connect 4 0 18 0;
#X connect 5 0 0 0;
#X connect 6 0 20 0;
#X connect 7 0 6 0;
#X connect 8 0 9 0;
#X connect 9 0 11 0;
#X connect 10 0 7 0;
#X connect 11 0 10 0;
#X connect 11 1 5 0;
#X connect 12 0 13 1;
#X connect 13 0 14 0;
#X connect 16 0 12 0;
#X connect 17 0 5 0;
#X connect 18 0 3 0;
#X connect 19 0 2 0;
#X connect 20 0 0 0;
#X restore 485 777 pd square62;
#N canvas 962 371 588 557 square63 0;
#X obj 221 271 readsf~;
#X obj 322 59 receive tP;
#X obj 322 119 select 1;
#X obj 115 121 select 1;
#X obj 115 63 receive sP;
#X msg 221 168 0;
#X obj 58 411 select 1;
#X obj 58 380 == 1;
#X obj 58 261 receive initialize;
#X obj 58 292 nbx 5 14 -1e+037 1e+037 0 1 empty empty empty 0 -8 0
10 -262144 -1 -1 62 256;
#X obj 58 349 tabread initialPositions;
#X obj 58 318 t f b;
#X floatatom 354 322 5 0 0 0 - - -;
#X obj 354 366 spigot;
#X obj 354 411 send pieceCaptured;
#X obj 221 318 throw~ master;
#X obj 354 277 env~ 10000;
#X obj 221 121 loadbang;
#X obj 115 92 == 64;
#X obj 322 89 == 64;
#X msg 322 200 0 \, open 63.wav \, 1;
#X connect 0 0 15 0;
#X connect 0 0 16 0;
#X connect 0 1 20 0;
#X connect 1 0 19 0;
#X connect 2 0 20 0;
#X connect 2 0 13 0;
#X connect 3 0 5 0;
#X connect 4 0 18 0;
#X connect 5 0 0 0;
#X connect 6 0 20 0;
#X connect 7 0 6 0;
#X connect 8 0 9 0;
#X connect 9 0 11 0;
#X connect 10 0 7 0;
#X connect 11 0 10 0;
#X connect 11 1 5 0;
#X connect 12 0 13 1;
#X connect 13 0 14 0;
#X connect 16 0 12 0;
#X connect 17 0 5 0;
#X connect 18 0 3 0;
#X connect 19 0 2 0;
#X connect 20 0 0 0;
#X restore 575 777 pd square63;
#N canvas 962 371 588 557 square64 0;
#X obj 221 271 readsf~;
#X obj 322 59 receive tP;
#X obj 322 119 select 1;
#X obj 115 121 select 1;
#X obj 115 63 receive sP;
#X msg 221 168 0;
#X obj 58 411 select 1;
#X obj 58 380 == 1;
#X obj 58 261 receive initialize;
#X obj 58 292 nbx 5 14 -1e+037 1e+037 0 1 empty empty empty 0 -8 0
10 -262144 -1 -1 63 256;
#X obj 58 349 tabread initialPositions;
#X obj 58 318 t f b;
#X floatatom 354 322 5 0 0 0 - - -;
#X obj 354 366 spigot;
#X obj 354 411 send pieceCaptured;
#X obj 221 318 throw~ master;
#X obj 354 277 env~ 10000;
#X obj 221 121 loadbang;
#X obj 115 92 == 65;
#X msg 322 200 0 \, open 64.wav \, 1;
#X obj 322 89 == 65;
#X connect 0 0 15 0;
#X connect 0 0 16 0;
#X connect 0 1 19 0;
#X connect 1 0 20 0;
#X connect 2 0 19 0;
#X connect 2 0 13 0;
#X connect 3 0 5 0;
#X connect 4 0 18 0;
#X connect 5 0 0 0;
#X connect 6 0 19 0;
#X connect 7 0 6 0;
#X connect 8 0 9 0;
#X connect 9 0 11 0;
#X connect 10 0 7 0;
#X connect 11 0 10 0;
#X connect 11 1 5 0;
#X connect 12 0 13 1;
#X connect 13 0 14 0;
#X connect 16 0 12 0;
#X connect 17 0 5 0;
#X connect 18 0 3 0;
#X connect 19 0 0 0;
#X connect 20 0 2 0;
#X restore 666 777 pd square64;
#X floatatom 42 153 5 0 0 0 - - -;
#X obj 42 123 expr if($f1 > 1 \, $f1 \, 0);
#X obj 395 178 t b b;
#X floatatom 812 606 5 0 0 0 - - -;
#X obj 770 211 random 10;
#X obj 770 262 select 0 1 2 3 4 5 6 7 8 9;
#N canvas 213 256 310 327 rnd0 1;
#X obj 100 78 inlet;
#X obj 100 144 readsf~;
#X msg 100 112 open rnd0.wav \, 1;
#X obj 100 176 throw~ master2;
#X connect 0 0 2 0;
#X connect 1 0 3 0;
#X connect 2 0 1 0;
#X restore 958 281 pd rnd0;
#N canvas 213 256 310 327 rnd1 0;
#X obj 100 78 inlet;
#X obj 100 144 readsf~;
#X msg 100 112 open rnd1.wav \, 1;
#X obj 100 177 throw~ master2;
#X connect 0 0 2 0;
#X connect 1 0 3 0;
#X connect 2 0 1 0;
#X restore 958 306 pd rnd1;
#N canvas 213 256 310 327 rnd2 0;
#X obj 100 78 inlet;
#X obj 100 144 readsf~;
#X msg 100 112 open rnd2.wav \, 1;
#X obj 100 177 throw~ master2;
#X connect 0 0 2 0;
#X connect 1 0 3 0;
#X connect 2 0 1 0;
#X restore 958 331 pd rnd2;
#N canvas 213 256 310 327 rnd3 0;
#X obj 100 78 inlet;
#X obj 100 144 readsf~;
#X msg 100 112 open rnd3.wav \, 1;
#X obj 100 177 throw~ master2;
#X connect 0 0 2 0;
#X connect 1 0 3 0;
#X connect 2 0 1 0;
#X restore 958 356 pd rnd3;
#N canvas 213 256 310 327 rnd4 0;
#X obj 100 78 inlet;
#X obj 100 144 readsf~;
#X msg 100 112 open rnd4.wav \, 1;
#X obj 100 177 throw~ master2;
#X connect 0 0 2 0;
#X connect 1 0 3 0;
#X connect 2 0 1 0;
#X restore 958 381 pd rnd4;
#N canvas 213 256 310 327 rnd5 0;
#X obj 100 78 inlet;
#X obj 100 144 readsf~;
#X msg 100 112 open rnd5.wav \, 1;
#X obj 100 177 throw~ master2;
#X connect 0 0 2 0;
#X connect 1 0 3 0;
#X connect 2 0 1 0;
#X restore 958 406 pd rnd5;
#N canvas 213 256 310 327 rnd6 0;
#X obj 100 78 inlet;
#X obj 100 144 readsf~;
#X msg 100 112 open rnd6.wav \, 1;
#X obj 100 175 throw~ master2;
#X connect 0 0 2 0;
#X connect 1 0 3 0;
#X connect 2 0 1 0;
#X restore 958 431 pd rnd6;
#N canvas 213 256 310 327 rnd7 0;
#X obj 100 78 inlet;
#X obj 100 144 readsf~;
#X msg 100 112 open rnd7.wav \, 1;
#X obj 100 177 throw~ master2;
#X connect 0 0 2 0;
#X connect 1 0 3 0;
#X connect 2 0 1 0;
#X restore 958 456 pd rnd7;
#N canvas 213 256 310 327 rnd8 0;
#X obj 100 78 inlet;
#X obj 100 144 readsf~;
#X msg 100 112 open rnd8.wav \, 1;
#X obj 100 177 throw~ master2;
#X connect 0 0 2 0;
#X connect 1 0 3 0;
#X connect 2 0 1 0;
#X restore 958 481 pd rnd8;
#N canvas 213 256 310 327 rnd9 0;
#X obj 100 78 inlet;
#X obj 100 144 readsf~;
#X msg 100 112 open rnd9.wav \, 1;
#X obj 100 177 throw~ master2;
#X connect 0 0 2 0;
#X connect 1 0 3 0;
#X connect 2 0 1 0;
#X restore 958 506 pd rnd9;
#X obj 812 778 dac~;
#X obj 638 378 f;
#X floatatom 638 408 5 0 0 0 - - -;
#X obj 674 377 - 1;
#X obj 638 346 array sum initialPositions;
#X obj 711 188 bng 15 250 50 0 empty empty empty 17 7 0 10 -262144
-1 -1;
#X obj 904 606 catch~ master2;
#X obj 903 633 *~ 0.4;
#X connect 0 0 17 0;
#X connect 0 0 88 0;
#X connect 0 1 5 0;
#X connect 2 0 8 1;
#X connect 4 0 1 0;
#X connect 4 1 8 0;
#X connect 5 0 13 0;
#X connect 5 0 89 0;
#X connect 7 0 1 1;
#X connect 7 0 10 0;
#X connect 8 0 2 0;
#X connect 8 0 7 0;
#X connect 9 0 8 1;
#X connect 10 0 11 0;
#X connect 11 0 9 0;
#X connect 11 0 18 0;
#X connect 11 0 107 0;
#X connect 12 1 4 0;
#X connect 13 0 9 0;
#X connect 14 0 15 0;
#X connect 14 1 16 0;
#X connect 17 0 12 0;
#X connect 19 0 91 0;
#X connect 19 0 108 0;
#X connect 21 0 103 0;
#X connect 21 0 103 1;
#X connect 22 0 90 0;
#X connect 23 0 21 0;
#X connect 87 0 14 0;
#X connect 88 0 87 0;
#X connect 89 0 18 0;
#X connect 89 1 3 0;
#X connect 90 0 21 1;
#X connect 91 0 92 0;
#X connect 92 0 93 0;
#X connect 92 1 94 0;
#X connect 92 2 95 0;
#X connect 92 3 96 0;
#X connect 92 4 97 0;
#X connect 92 5 98 0;
#X connect 92 6 99 0;
#X connect 92 7 100 0;
#X connect 92 8 101 0;
#X connect 92 9 102 0;
#X connect 104 0 105 0;
#X connect 104 0 106 0;
#X connect 106 0 104 1;
#X connect 107 0 104 0;
#X connect 108 0 104 0;
#X connect 109 0 110 0;
#X connect 110 0 21 0;
